<svg width="50" height="58" viewBox="0 0 50 58" fill="none" xmlns="http://www.w3.org/2000/svg">
<g clip-path="url(#clip0)">
<path d="M25.0108 0.849845C33.1173 0.849845 41.2239 0.861157 49.3305 0.838533C49.8974 0.838533 50.0334 0.9969 49.9767 1.52856C49.682 4.60541 49.3985 7.67094 49.1264 10.7478C48.877 13.5192 48.6275 16.3019 48.3894 19.0734C47.9246 24.3673 47.4711 29.65 47.0062 34.944C46.6434 38.9937 46.2693 43.0433 45.9065 47.093C45.7817 48.4278 45.657 49.7513 45.5663 51.0861C45.5436 51.4142 45.3849 51.5273 45.0901 51.6065C43.14 52.1381 41.2012 52.6924 39.2625 53.2354C37.1536 53.8236 35.0448 54.4118 32.9359 55.0001C30.3622 55.724 27.7885 56.4706 25.1922 57.1606C24.5913 57.319 23.9904 56.9231 23.4008 56.7647C21.1445 56.1652 18.8997 55.4978 16.6434 54.8643C12.7999 53.7784 8.945 52.6924 5.10146 51.6178C4.74999 51.516 4.62527 51.3689 4.59126 51.0069C4.2738 47.4776 3.93366 43.9596 3.6162 40.4303C3.32142 37.0593 3.06065 33.6771 2.76586 30.2948C2.47108 26.9012 2.14228 23.5076 1.82482 20.1254C1.57539 17.4444 1.33729 14.7635 1.09919 12.0826C0.827086 9.29986 0.566315 6.50581 0.32822 3.71176C0.260192 2.88599 0.192165 2.06022 0.022097 1.24576C-0.0459302 0.94034 0.0561106 0.815909 0.362233 0.838533C0.554977 0.849845 0.736383 0.838533 0.929127 0.838533C8.95634 0.849845 16.9835 0.849845 25.0108 0.849845ZM25.0788 29.2315C25.0788 36.9802 25.0788 44.7288 25.0788 52.4775C25.0788 53.2467 25.1015 53.292 25.8271 53.0544C27.5845 52.4888 29.3872 52.1155 31.1445 51.5725C32.9019 51.0296 34.6933 50.611 36.4733 50.1246C37.9926 49.7174 39.5006 49.2536 41.0312 48.8916C41.5981 48.7559 41.6888 48.4165 41.7341 47.9754C41.8588 46.6519 41.9722 45.3284 42.0743 44.0049C42.233 41.9348 42.4371 39.8647 42.6298 37.7946C42.8226 35.7585 43.004 33.7336 43.1854 31.6975C43.3894 29.4577 43.5935 27.218 43.7749 24.9782C43.945 22.8742 44.1604 20.7588 44.3418 18.6548C44.5232 16.5508 44.716 14.4355 44.9087 12.3315C45.1015 10.2274 45.2375 8.1121 45.4869 6.00809C45.555 5.39724 45.4303 5.25019 44.8294 5.25019C38.5255 5.29543 32.2103 5.15969 25.9065 5.31806C25.0901 5.34068 25.0901 5.34068 25.0901 6.15514C25.0788 13.8586 25.0788 21.5507 25.0788 29.2315ZM23.072 28.3605C23.072 23.0439 23.072 17.7272 23.0833 12.4106C23.0833 11.9016 22.9586 11.7206 22.4144 11.7432C21.1899 11.7885 19.9541 11.7772 18.7296 11.7432C18.2534 11.7319 18.1287 11.9242 18.1514 12.3428C18.1854 12.8857 18.208 13.4287 18.208 13.9717C18.208 21.7204 18.208 29.469 18.2194 37.2064C18.2194 37.6249 18.0833 37.7607 17.6752 37.6476C16.8475 37.41 16.0085 37.1725 15.1695 36.9462C13.1287 36.3806 11.0879 35.8376 9.05838 35.2607C8.57085 35.125 8.48015 35.2947 8.48015 35.7472C8.50282 37.2403 8.5255 38.7222 8.46881 40.2154C8.44613 40.7923 8.66155 41.0072 9.17176 41.1429C10.8157 41.5728 12.4484 42.0366 14.0811 42.4891C16.7568 43.2243 19.4325 43.9709 22.0969 44.7062C23.0493 44.9664 23.0493 44.9664 23.0493 43.9709C23.072 38.7674 23.072 33.5639 23.072 28.3605Z" fill="#D1B500"/>
<path d="M25.0792 29.2312C25.0792 21.5391 25.0792 13.847 25.0792 6.15489C25.0792 5.34043 25.0792 5.34043 25.8955 5.31781C32.1994 5.15944 38.5146 5.29518 44.8184 5.24993C45.4193 5.24993 45.5554 5.39699 45.476 6.00783C45.2266 8.11185 45.0905 10.2272 44.8978 12.3312C44.7051 14.4352 44.5237 16.5506 44.3309 18.6546C44.1495 20.7586 43.9341 22.8626 43.764 24.9779C43.5826 27.2177 43.3785 29.4575 43.1744 31.6972C42.993 33.7334 42.8116 35.7582 42.6189 37.7944C42.4261 39.8644 42.2221 41.9345 42.0633 44.0046C41.9613 45.3281 41.8479 46.6516 41.7232 47.9751C41.6778 48.4163 41.5871 48.7556 41.0202 48.8914C39.4896 49.2533 37.9817 49.7171 36.4624 50.1244C34.6824 50.6108 32.891 51.0293 31.1336 51.5723C29.3763 52.1153 27.5735 52.4886 25.8162 53.0542C25.0792 53.2917 25.0679 53.2465 25.0679 52.4772C25.0792 44.7286 25.0792 36.9799 25.0792 29.2312ZM27.0633 22.5685C27.0633 25.4304 27.0633 28.2923 27.0633 31.1656C27.0633 31.7538 27.0633 32.3307 27.0633 32.9189C27.0633 33.2583 27.1767 33.4053 27.5509 33.2922C27.8797 33.2017 28.2198 33.1791 28.5486 33.1225C31.145 32.6474 33.7413 32.1836 36.3377 31.6972C36.8139 31.6067 36.984 31.7538 36.95 32.2515C36.8819 33.5298 36.7572 34.7967 36.7912 36.0863C36.8026 36.4596 36.5758 36.5953 36.247 36.6858C33.3672 37.4324 30.4874 38.2016 27.6076 38.9482C27.2788 39.0387 27.0633 39.1518 27.0633 39.5364C27.0747 41.1766 27.0633 42.8169 27.0633 44.4571C27.0633 44.8304 27.1994 44.9661 27.5849 44.8643C28.4692 44.6155 29.3649 44.3892 30.2606 44.1517C33.5486 43.292 36.8252 42.4209 40.1132 41.5725C40.51 41.4707 40.6348 41.2784 40.6688 40.9278C40.8162 38.9821 40.9749 37.0251 41.1223 35.0795C41.3377 32.2854 41.5758 29.4914 41.7685 26.6974C41.8819 25.125 42.0973 25.2381 40.4987 25.453C40.4647 25.453 40.4193 25.453 40.3853 25.4644C37.7663 25.7924 35.1472 26.1091 32.5395 26.4372C32.1314 26.4937 31.9386 26.3919 31.9386 25.9508C31.95 23.349 31.95 20.7473 31.9386 18.1455C31.9386 17.7836 32.0633 17.6139 32.4261 17.6478C32.5962 17.6591 32.7663 17.6478 32.9364 17.6478C35.9182 17.6478 38.9001 17.6478 41.8933 17.6591C42.2447 17.6591 42.5168 17.6478 42.5509 17.184C42.6756 15.5551 42.823 13.9262 42.9704 12.2973C43.0044 11.8787 42.857 11.7543 42.4261 11.7543C37.5395 11.7769 32.6416 11.7769 27.7549 11.7543C27.1881 11.7543 27.0633 11.9353 27.0633 12.4669C27.0633 15.8153 27.052 19.1975 27.0633 22.5685Z" fill="#F2D200"/>
<path d="M23.0723 28.3601C23.0723 33.5635 23.0723 38.767 23.0723 43.9705C23.0723 44.9773 23.0723 44.9773 22.12 44.7058C19.4442 43.9705 16.7685 43.2239 14.1041 42.4887C12.4714 42.0362 10.8388 41.5724 9.1948 41.1425C8.68459 41.0068 8.46917 40.8032 8.49185 40.215C8.54854 38.7331 8.52586 37.2399 8.50319 35.7467C8.49185 35.2943 8.58255 35.1246 9.08142 35.2603C11.1109 35.8372 13.1517 36.3915 15.1925 36.9458C16.0315 37.1721 16.8592 37.4096 17.6982 37.6472C18.1064 37.7603 18.2424 37.6245 18.2424 37.206C18.2311 29.4573 18.2311 21.7086 18.2311 13.9713C18.2311 13.4283 18.2084 12.8853 18.1744 12.3424C18.1517 11.9238 18.2764 11.7315 18.7526 11.7428C19.9771 11.7768 21.2129 11.7881 22.4374 11.7428C22.9816 11.7202 23.1064 11.9012 23.1064 12.4102C23.0723 17.7268 23.0723 23.0435 23.0723 28.3601Z" fill="#FFFFFE"/>
<path d="M27.0519 22.5685C27.0519 19.1976 27.0632 15.8266 27.0405 12.4443C27.0405 11.924 27.1652 11.7317 27.7321 11.7317C32.6188 11.7543 37.5167 11.7543 42.4033 11.7317C42.8342 11.7317 42.9815 11.8561 42.9475 12.2747C42.8001 13.9036 42.6528 15.5325 42.528 17.1614C42.494 17.6252 42.2219 17.6365 41.8704 17.6365C38.8886 17.6252 35.9067 17.6252 32.9135 17.6252C32.7435 17.6252 32.5734 17.6478 32.4033 17.6252C32.0292 17.6026 31.9158 17.761 31.9158 18.1229C31.9271 20.7247 31.9271 23.3264 31.9158 25.9282C31.9158 26.3693 32.1085 26.4711 32.5167 26.4146C35.1358 26.0752 37.7548 25.7585 40.3625 25.4418C40.3965 25.4418 40.4419 25.4418 40.4759 25.4304C42.0632 25.2042 41.8478 25.1024 41.7457 26.6748C41.553 29.4688 41.3149 32.2628 41.0995 35.0569C40.9407 37.0025 40.7933 38.9595 40.646 40.9052C40.6233 41.2672 40.4872 41.4594 40.0904 41.5499C36.8024 42.387 33.5258 43.2581 30.2378 44.1291C29.3421 44.3666 28.4464 44.5929 27.5621 44.8417C27.1766 44.9548 27.0405 44.8191 27.0405 44.4345C27.0519 42.7943 27.0519 41.154 27.0405 39.5138C27.0405 39.1292 27.2559 39.0161 27.5847 38.9256C30.4646 38.179 33.3444 37.4098 36.2242 36.6632C36.553 36.5727 36.7797 36.4483 36.7684 36.0637C36.7344 34.7854 36.8591 33.5072 36.9271 32.2289C36.9498 31.7312 36.7797 31.5841 36.3149 31.6746C33.7185 32.161 31.1222 32.6248 28.5258 33.0999C28.197 33.1565 27.8455 33.1791 27.5281 33.2696C27.1539 33.3714 27.0405 33.2244 27.0405 32.8963C27.0405 32.3081 27.0405 31.7312 27.0405 31.143C27.0632 28.2924 27.0632 25.4304 27.0519 22.5685Z" fill="#FFFFFE"/>
</g>
<defs>
<clipPath id="clip0">
<rect y="0.838135" width="50" height="56.3787" fill="white"/>
</clipPath>
</defs>
</svg>
