<svg width="556" height="314" viewBox="0 0 556 314" fill="none" xmlns="http://www.w3.org/2000/svg">
<path d="M486.856 21L484.066 16.788H482.32V21H479.71V7.752H483.724C485.368 7.752 486.64 8.154 487.54 8.958C488.452 9.75 488.908 10.836 488.908 12.216C488.908 13.032 488.734 13.8 488.386 14.52C488.05 15.228 487.528 15.786 486.82 16.194L489.898 21H486.856ZM482.32 14.268H484.174C484.882 14.268 485.398 14.064 485.722 13.656C486.046 13.236 486.208 12.786 486.208 12.306C486.208 11.826 486.07 11.37 485.794 10.938C485.518 10.494 484.984 10.272 484.192 10.272H482.32V14.268ZM495.208 19.074C495.712 19.074 496.234 18.9 496.774 18.552L497.89 20.424C497.458 20.664 497.002 20.856 496.522 21C496.042 21.144 495.586 21.216 495.154 21.216C494.218 21.216 493.408 21.042 492.724 20.694C492.052 20.334 491.542 19.836 491.194 19.2C490.846 18.552 490.672 17.814 490.672 16.986C490.672 16.218 490.87 15.51 491.266 14.862C491.674 14.214 492.226 13.704 492.922 13.332C493.618 12.948 494.38 12.756 495.208 12.756C496.336 12.756 497.26 13.086 497.98 13.746C498.712 14.406 499.186 15.348 499.402 16.572L493.642 18.408C494.026 18.852 494.548 19.074 495.208 19.074ZM495.01 14.718C494.446 14.718 493.996 14.91 493.66 15.294C493.324 15.678 493.156 16.194 493.156 16.842V17.004L496.612 15.834C496.36 15.09 495.826 14.718 495.01 14.718ZM503.79 21.162C503.142 21.162 502.536 21.048 501.972 20.82C501.408 20.592 500.939 20.274 500.568 19.866L501.612 18.48C502.308 19.128 502.962 19.452 503.574 19.452C503.898 19.452 504.156 19.404 504.348 19.308C504.552 19.2 504.654 19.044 504.654 18.84C504.654 18.6 504.54 18.42 504.312 18.3C504.084 18.168 503.826 18.06 503.538 17.976C503.262 17.892 503.076 17.838 502.98 17.814C502.296 17.598 501.786 17.28 501.45 16.86C501.114 16.428 500.946 15.936 500.946 15.384C500.946 14.964 501.054 14.556 501.27 14.16C501.498 13.752 501.846 13.422 502.313 13.17C502.782 12.906 503.364 12.774 504.06 12.774C504.708 12.774 505.26 12.84 505.716 12.972C506.172 13.104 506.61 13.32 507.03 13.62L506.076 15.096C505.836 14.904 505.566 14.748 505.266 14.628C504.978 14.496 504.714 14.43 504.474 14.43C504.186 14.43 503.952 14.49 503.772 14.61C503.592 14.73 503.502 14.874 503.502 15.042C503.49 15.294 503.592 15.486 503.808 15.618C504.036 15.738 504.384 15.864 504.852 15.996C504.924 16.02 504.996 16.044 505.068 16.068C505.152 16.092 505.236 16.116 505.32 16.14C506.556 16.548 507.174 17.292 507.174 18.372C507.174 18.876 507.048 19.338 506.796 19.758C506.544 20.178 506.16 20.52 505.644 20.784C505.14 21.036 504.522 21.162 503.79 21.162ZM513.208 19.074C513.712 19.074 514.234 18.9 514.774 18.552L515.89 20.424C515.458 20.664 515.002 20.856 514.522 21C514.042 21.144 513.586 21.216 513.154 21.216C512.218 21.216 511.408 21.042 510.724 20.694C510.052 20.334 509.542 19.836 509.194 19.2C508.846 18.552 508.672 17.814 508.672 16.986C508.672 16.218 508.87 15.51 509.266 14.862C509.674 14.214 510.226 13.704 510.922 13.332C511.618 12.948 512.38 12.756 513.208 12.756C514.336 12.756 515.26 13.086 515.98 13.746C516.712 14.406 517.186 15.348 517.402 16.572L511.642 18.408C512.026 18.852 512.548 19.074 513.208 19.074ZM513.01 14.718C512.446 14.718 511.996 14.91 511.66 15.294C511.324 15.678 511.156 16.194 511.156 16.842V17.004L514.612 15.834C514.36 15.09 513.826 14.718 513.01 14.718ZM527.694 13.134V21H525.174V20.028C524.418 20.82 523.542 21.216 522.546 21.216C521.382 21.216 520.434 20.868 519.702 20.172C518.982 19.476 518.622 18.444 518.622 17.076C518.622 16.212 518.796 15.456 519.144 14.808C519.504 14.148 519.978 13.638 520.566 13.278C521.154 12.918 521.784 12.738 522.456 12.738C523.152 12.738 523.704 12.846 524.112 13.062C524.52 13.266 524.88 13.56 525.192 13.944L525.354 13.134H527.694ZM523.266 19.164C524.142 19.164 524.778 18.768 525.174 17.976V16.05C525.03 15.666 524.778 15.36 524.418 15.132C524.07 14.904 523.656 14.79 523.176 14.79C522.624 14.79 522.15 14.994 521.754 15.402C521.37 15.81 521.178 16.326 521.178 16.95C521.178 17.358 521.274 17.736 521.466 18.084C521.658 18.42 521.91 18.684 522.222 18.876C522.546 19.068 522.894 19.164 523.266 19.164ZM532.756 14.934C532.972 14.514 533.266 14.136 533.638 13.8C534.022 13.464 534.412 13.206 534.808 13.026C535.204 12.834 535.516 12.738 535.744 12.738L535.618 15.258C535.546 15.246 535.444 15.24 535.312 15.24C534.808 15.24 534.364 15.372 533.98 15.636C533.596 15.9 533.302 16.242 533.098 16.662C532.894 17.07 532.792 17.49 532.792 17.922V21H530.29V13.134H532.558L532.756 14.934ZM543.999 20.298C543.651 20.574 543.213 20.796 542.685 20.964C542.169 21.132 541.659 21.216 541.155 21.216C539.787 21.216 538.701 20.85 537.897 20.118C537.105 19.374 536.709 18.354 536.709 17.058C536.709 16.218 536.901 15.486 537.285 14.862C537.681 14.226 538.197 13.746 538.833 13.422C539.469 13.086 540.153 12.918 540.885 12.918C542.193 12.918 543.255 13.266 544.071 13.962L542.847 15.582C542.331 15.174 541.755 14.97 541.119 14.97C540.591 14.97 540.141 15.168 539.769 15.564C539.409 15.96 539.229 16.458 539.229 17.058C539.229 17.658 539.427 18.162 539.823 18.57C540.219 18.966 540.735 19.164 541.371 19.164C541.923 19.164 542.379 19.014 542.739 18.714L543.999 20.298ZM551.407 12.756C552.151 12.756 552.769 12.978 553.261 13.422C553.765 13.866 554.023 14.43 554.035 15.114V21H551.515V16.05C551.479 15.282 551.095 14.898 550.363 14.898C549.787 14.898 549.325 15.168 548.977 15.708C548.629 16.248 548.455 16.944 548.455 17.796V21H545.935V6.798H548.401V14.376C548.689 13.872 549.085 13.476 549.589 13.188C550.105 12.9 550.711 12.756 551.407 12.756Z" fill="#555555"/>
<path d="M264.157 139.016C264.853 139.34 265.393 139.766 265.777 140.294C266.173 140.81 266.371 141.41 266.371 142.094C266.371 143.438 265.927 144.428 265.039 145.064C264.163 145.688 263.065 146 261.745 146H257.335V132.752H261.223C262.627 132.752 263.731 133.04 264.535 133.616C265.339 134.18 265.741 135.002 265.741 136.082C265.741 136.742 265.603 137.324 265.327 137.828C265.051 138.32 264.661 138.716 264.157 139.016ZM259.945 138.17H261.529C262.009 138.17 262.381 138.026 262.645 137.738C262.909 137.438 263.041 137.072 263.041 136.64C263.041 136.196 262.891 135.86 262.591 135.632C262.291 135.392 261.877 135.272 261.349 135.272H259.945V138.17ZM261.619 143.57C262.231 143.57 262.723 143.45 263.095 143.21C263.479 142.958 263.671 142.586 263.671 142.094C263.671 141.158 262.927 140.69 261.439 140.69H259.945V143.57H261.619ZM271.041 139.934C271.257 139.514 271.551 139.136 271.923 138.8C272.307 138.464 272.697 138.206 273.093 138.026C273.489 137.834 273.801 137.738 274.029 137.738L273.903 140.258C273.831 140.246 273.729 140.24 273.597 140.24C273.093 140.24 272.649 140.372 272.265 140.636C271.881 140.9 271.587 141.242 271.383 141.662C271.179 142.07 271.077 142.49 271.077 142.922V146H268.575V138.134H270.843L271.041 139.934ZM284.154 138.134V146H281.634V145.028C280.878 145.82 280.002 146.216 279.006 146.216C277.842 146.216 276.894 145.868 276.162 145.172C275.442 144.476 275.082 143.444 275.082 142.076C275.082 141.212 275.256 140.456 275.604 139.808C275.964 139.148 276.438 138.638 277.026 138.278C277.614 137.918 278.244 137.738 278.916 137.738C279.612 137.738 280.164 137.846 280.572 138.062C280.98 138.266 281.34 138.56 281.652 138.944L281.814 138.134H284.154ZM279.726 144.164C280.602 144.164 281.238 143.768 281.634 142.976V141.05C281.49 140.666 281.238 140.36 280.878 140.132C280.53 139.904 280.116 139.79 279.636 139.79C279.084 139.79 278.61 139.994 278.214 140.402C277.83 140.81 277.638 141.326 277.638 141.95C277.638 142.358 277.734 142.736 277.926 143.084C278.118 143.42 278.37 143.684 278.682 143.876C279.006 144.068 279.354 144.164 279.726 144.164ZM292.223 137.756C292.967 137.756 293.585 137.978 294.077 138.422C294.581 138.866 294.839 139.43 294.851 140.114V146H292.331V141.05C292.295 140.282 291.911 139.898 291.179 139.898C290.603 139.898 290.141 140.168 289.793 140.708C289.445 141.248 289.271 141.944 289.271 142.796V146H286.751V138.134H289.037L289.217 139.394C289.505 138.878 289.901 138.476 290.405 138.188C290.921 137.9 291.527 137.756 292.223 137.756ZM306.079 131.798V146H303.559V145.172C302.647 145.868 301.675 146.216 300.643 146.216C299.911 146.216 299.257 146.042 298.681 145.694C298.105 145.346 297.649 144.848 297.313 144.2C296.989 143.552 296.827 142.79 296.827 141.914C296.827 141.05 297.001 140.306 297.349 139.682C297.709 139.046 298.201 138.566 298.825 138.242C299.449 137.906 300.163 137.738 300.967 137.738C301.483 137.738 301.969 137.822 302.425 137.99C302.881 138.146 303.265 138.38 303.577 138.692V131.798H306.079ZM301.471 144.092C301.975 144.092 302.395 143.996 302.731 143.804C303.067 143.6 303.343 143.3 303.559 142.904V140.978C303.415 140.594 303.157 140.288 302.785 140.06C302.413 139.832 301.975 139.718 301.471 139.718C300.907 139.718 300.415 139.922 299.995 140.33C299.587 140.738 299.383 141.254 299.383 141.878C299.383 142.286 299.479 142.664 299.671 143.012C299.863 143.348 300.115 143.612 300.427 143.804C300.751 143.996 301.099 144.092 301.471 144.092ZM252.422 156.752V170H249.812V156.752H252.422ZM264.067 155.798V170H261.547V169.172C260.635 169.868 259.663 170.216 258.631 170.216C257.899 170.216 257.245 170.042 256.669 169.694C256.093 169.346 255.637 168.848 255.301 168.2C254.977 167.552 254.815 166.79 254.815 165.914C254.815 165.05 254.989 164.306 255.337 163.682C255.697 163.046 256.189 162.566 256.813 162.242C257.437 161.906 258.151 161.738 258.955 161.738C259.471 161.738 259.957 161.822 260.413 161.99C260.869 162.146 261.253 162.38 261.565 162.692V155.798H264.067ZM259.459 168.092C259.963 168.092 260.383 167.996 260.719 167.804C261.055 167.6 261.331 167.3 261.547 166.904V164.978C261.403 164.594 261.145 164.288 260.773 164.06C260.401 163.832 259.963 163.718 259.459 163.718C258.895 163.718 258.403 163.922 257.983 164.33C257.575 164.738 257.371 165.254 257.371 165.878C257.371 166.286 257.467 166.664 257.659 167.012C257.851 167.348 258.103 167.612 258.415 167.804C258.739 167.996 259.087 168.092 259.459 168.092ZM270.583 168.074C271.087 168.074 271.609 167.9 272.149 167.552L273.265 169.424C272.833 169.664 272.377 169.856 271.897 170C271.417 170.144 270.961 170.216 270.529 170.216C269.593 170.216 268.783 170.042 268.099 169.694C267.427 169.334 266.917 168.836 266.569 168.2C266.221 167.552 266.047 166.814 266.047 165.986C266.047 165.218 266.245 164.51 266.641 163.862C267.049 163.214 267.601 162.704 268.297 162.332C268.993 161.948 269.755 161.756 270.583 161.756C271.711 161.756 272.635 162.086 273.355 162.746C274.087 163.406 274.561 164.348 274.777 165.572L269.017 167.408C269.401 167.852 269.923 168.074 270.583 168.074ZM270.385 163.718C269.821 163.718 269.371 163.91 269.035 164.294C268.699 164.678 268.531 165.194 268.531 165.842V166.004L271.987 164.834C271.735 164.09 271.201 163.718 270.385 163.718ZM282.081 161.756C282.825 161.756 283.443 161.978 283.935 162.422C284.439 162.866 284.697 163.43 284.709 164.114V170H282.189V165.05C282.153 164.282 281.769 163.898 281.037 163.898C280.461 163.898 279.999 164.168 279.651 164.708C279.303 165.248 279.129 165.944 279.129 166.796V170H276.609V162.134H278.895L279.075 163.394C279.363 162.878 279.759 162.476 280.263 162.188C280.779 161.9 281.385 161.756 282.081 161.756ZM290.554 158.678V162.098H292.462V164.06H290.554V170H288.034V164.06H286.81V162.098H288.034V158.678H290.554ZM296.9 162.134V170H294.38V162.134H296.9ZM294.326 159.344C294.326 158.984 294.464 158.684 294.74 158.444C295.028 158.192 295.352 158.066 295.712 158.066C296.06 158.066 296.372 158.192 296.648 158.444C296.924 158.684 297.062 158.984 297.062 159.344C297.062 159.704 296.924 160.004 296.648 160.244C296.372 160.484 296.06 160.604 295.712 160.604C295.352 160.604 295.028 160.484 294.74 160.244C294.464 160.004 294.326 159.704 294.326 159.344ZM302.753 158.678V162.098H304.661V164.06H302.753V170H300.233V164.06H299.009V162.098H300.233V158.678H302.753ZM314.715 162.134L309.639 173.78H307.209L309.099 169.586L305.463 162.134H308.289L310.359 166.778L312.447 162.134H314.715Z" fill="#555555"/>
<path d="M11.724 7.752C13.344 7.752 14.598 8.154 15.486 8.958C16.374 9.75 16.818 10.836 16.818 12.216C16.818 13.008 16.662 13.752 16.35 14.448C16.05 15.132 15.552 15.696 14.856 16.14C14.172 16.584 13.284 16.806 12.192 16.806H10.32V21H7.71V7.752H11.724ZM12.174 14.268C12.666 14.268 13.062 14.16 13.362 13.944C13.662 13.716 13.878 13.452 14.01 13.152C14.142 12.852 14.208 12.564 14.208 12.288C14.208 11.82 14.07 11.37 13.794 10.938C13.518 10.494 12.984 10.272 12.192 10.272H10.32V14.268H12.174ZM21.2054 14.934C21.4214 14.514 21.7154 14.136 22.0874 13.8C22.4714 13.464 22.8614 13.206 23.2574 13.026C23.6534 12.834 23.9654 12.738 24.1934 12.738L24.0674 15.258C23.9954 15.246 23.8934 15.24 23.7614 15.24C23.2574 15.24 22.8134 15.372 22.4294 15.636C22.0454 15.9 21.7514 16.242 21.5474 16.662C21.3434 17.07 21.2414 17.49 21.2414 17.922V21H18.7394V13.134H21.0074L21.2054 14.934ZM25.1586 16.968C25.1586 16.164 25.3446 15.444 25.7166 14.808C26.1006 14.172 26.6346 13.674 27.3186 13.314C28.0146 12.942 28.8006 12.756 29.6766 12.756C30.5526 12.756 31.3206 12.942 31.9806 13.314C32.6526 13.674 33.1686 14.172 33.5286 14.808C33.8886 15.444 34.0686 16.164 34.0686 16.968C34.0686 17.772 33.8886 18.498 33.5286 19.146C33.1686 19.794 32.6526 20.304 31.9806 20.676C31.3206 21.036 30.5406 21.216 29.6406 21.216C28.7646 21.216 27.9846 21.048 27.3006 20.712C26.6286 20.364 26.1006 19.872 25.7166 19.236C25.3446 18.6 25.1586 17.844 25.1586 16.968ZM27.6966 16.986C27.6966 17.61 27.8766 18.132 28.2366 18.552C28.5966 18.96 29.0526 19.164 29.6046 19.164C30.1806 19.164 30.6426 18.96 30.9906 18.552C31.3506 18.144 31.5306 17.622 31.5306 16.986C31.5306 16.35 31.3506 15.828 30.9906 15.42C30.6426 15.012 30.1806 14.808 29.6046 14.808C29.0526 14.808 28.5966 15.018 28.2366 15.438C27.8766 15.846 27.6966 16.362 27.6966 16.986ZM35.1178 23.232C35.8738 22.68 36.2518 21.888 36.2518 20.856V13.134H38.7718V21C38.7718 21.96 38.5978 22.746 38.2498 23.358C37.9138 23.97 37.3558 24.45 36.5758 24.798L35.1178 23.232ZM36.1618 10.344C36.1618 9.984 36.2998 9.684 36.5758 9.444C36.8638 9.192 37.1878 9.066 37.5478 9.066C37.8958 9.066 38.2078 9.192 38.4838 9.444C38.7598 9.684 38.8978 9.984 38.8978 10.344C38.8978 10.704 38.7598 11.004 38.4838 11.244C38.2078 11.484 37.8958 11.604 37.5478 11.604C37.1878 11.604 36.8638 11.484 36.5758 11.244C36.2998 11.004 36.1618 10.704 36.1618 10.344ZM45.2864 19.074C45.7904 19.074 46.3124 18.9 46.8524 18.552L47.9684 20.424C47.5364 20.664 47.0804 20.856 46.6004 21C46.1204 21.144 45.6644 21.216 45.2324 21.216C44.2964 21.216 43.4864 21.042 42.8024 20.694C42.1304 20.334 41.6204 19.836 41.2724 19.2C40.9244 18.552 40.7504 17.814 40.7504 16.986C40.7504 16.218 40.9484 15.51 41.3444 14.862C41.7524 14.214 42.3044 13.704 43.0004 13.332C43.6964 12.948 44.4584 12.756 45.2864 12.756C46.4144 12.756 47.3384 13.086 48.0584 13.746C48.7904 14.406 49.2644 15.348 49.4804 16.572L43.7204 18.408C44.1044 18.852 44.6264 19.074 45.2864 19.074ZM45.0884 14.718C44.5244 14.718 44.0744 14.91 43.7384 15.294C43.4024 15.678 43.2344 16.194 43.2344 16.842V17.004L46.6904 15.834C46.4384 15.09 45.9044 14.718 45.0884 14.718ZM57.9896 20.298C57.6416 20.574 57.2036 20.796 56.6756 20.964C56.1596 21.132 55.6496 21.216 55.1456 21.216C53.7776 21.216 52.6916 20.85 51.8876 20.118C51.0956 19.374 50.6996 18.354 50.6996 17.058C50.6996 16.218 50.8916 15.486 51.2756 14.862C51.6716 14.226 52.1876 13.746 52.8236 13.422C53.4596 13.086 54.1436 12.918 54.8756 12.918C56.1836 12.918 57.2456 13.266 58.0616 13.962L56.8376 15.582C56.3216 15.174 55.7456 14.97 55.1096 14.97C54.5816 14.97 54.1316 15.168 53.7596 15.564C53.3996 15.96 53.2196 16.458 53.2196 17.058C53.2196 17.658 53.4176 18.162 53.8136 18.57C54.2096 18.966 54.7256 19.164 55.3616 19.164C55.9136 19.164 56.3696 19.014 56.7296 18.714L57.9896 20.298ZM63.1829 9.678V13.098H65.0909V15.06H63.1829V21H60.6629V15.06H59.4389V13.098H60.6629V9.678H63.1829Z" fill="#555555"/>
<path d="M490.784 292.956C489.632 292.32 488.63 292.002 487.778 292.002C487.202 292.002 486.752 292.116 486.428 292.344C486.116 292.572 485.96 292.914 485.96 293.37C485.96 293.79 486.188 294.162 486.644 294.486C487.112 294.798 487.73 295.098 488.498 295.386C489.122 295.614 489.656 295.878 490.1 296.178C490.544 296.466 490.91 296.868 491.198 297.384C491.498 297.9 491.648 298.554 491.648 299.346C491.648 300.03 491.468 300.666 491.108 301.254C490.76 301.83 490.244 302.292 489.56 302.64C488.876 302.976 488.06 303.144 487.112 303.144C486.32 303.144 485.534 303.03 484.754 302.802C483.974 302.562 483.248 302.202 482.576 301.722L483.728 299.688C484.184 300.024 484.706 300.3 485.294 300.516C485.882 300.732 486.41 300.84 486.878 300.84C487.43 300.84 487.91 300.726 488.318 300.498C488.726 300.258 488.93 299.874 488.93 299.346C488.93 298.662 488.288 298.068 487.004 297.564C486.248 297.264 485.618 296.976 485.114 296.7C484.61 296.424 484.172 296.028 483.8 295.512C483.44 294.996 483.26 294.348 483.26 293.568C483.26 292.428 483.632 291.51 484.376 290.814C485.132 290.118 486.134 289.74 487.382 289.68C488.366 289.68 489.188 289.794 489.848 290.022C490.508 290.238 491.15 290.55 491.774 290.958L490.784 292.956ZM493.178 298.968C493.178 298.164 493.364 297.444 493.736 296.808C494.12 296.172 494.654 295.674 495.338 295.314C496.034 294.942 496.82 294.756 497.696 294.756C498.572 294.756 499.34 294.942 500 295.314C500.672 295.674 501.188 296.172 501.548 296.808C501.908 297.444 502.088 298.164 502.088 298.968C502.088 299.772 501.908 300.498 501.548 301.146C501.188 301.794 500.672 302.304 500 302.676C499.34 303.036 498.56 303.216 497.66 303.216C496.784 303.216 496.004 303.048 495.32 302.712C494.648 302.364 494.12 301.872 493.736 301.236C493.364 300.6 493.178 299.844 493.178 298.968ZM495.716 298.986C495.716 299.61 495.896 300.132 496.256 300.552C496.616 300.96 497.072 301.164 497.624 301.164C498.2 301.164 498.662 300.96 499.01 300.552C499.37 300.144 499.55 299.622 499.55 298.986C499.55 298.35 499.37 297.828 499.01 297.42C498.662 297.012 498.2 296.808 497.624 296.808C497.072 296.808 496.616 297.018 496.256 297.438C495.896 297.846 495.716 298.362 495.716 298.986ZM506.593 288.798V303H504.073V288.798H506.593ZM517.109 295.134V303H514.823L514.643 301.74C514.367 302.244 513.977 302.646 513.473 302.946C512.981 303.234 512.399 303.378 511.727 303.378C511.007 303.378 510.407 303.156 509.927 302.712C509.447 302.268 509.201 301.704 509.189 301.02V295.134H511.709V300.084C511.745 300.852 512.099 301.236 512.771 301.236C513.323 301.236 513.761 300.966 514.085 300.426C514.421 299.886 514.589 299.19 514.589 298.338V295.134H517.109ZM522.958 291.678V295.098H524.866V297.06H522.958V303H520.438V297.06H519.214V295.098H520.438V291.678H522.958ZM529.304 295.134V303H526.784V295.134H529.304ZM526.73 292.344C526.73 291.984 526.868 291.684 527.144 291.444C527.432 291.192 527.756 291.066 528.116 291.066C528.464 291.066 528.776 291.192 529.052 291.444C529.328 291.684 529.466 291.984 529.466 292.344C529.466 292.704 529.328 293.004 529.052 293.244C528.776 293.484 528.464 293.604 528.116 293.604C527.756 293.604 527.432 293.484 527.144 293.244C526.868 293.004 526.73 292.704 526.73 292.344ZM531.288 298.968C531.288 298.164 531.474 297.444 531.846 296.808C532.23 296.172 532.764 295.674 533.448 295.314C534.144 294.942 534.93 294.756 535.806 294.756C536.682 294.756 537.45 294.942 538.11 295.314C538.782 295.674 539.298 296.172 539.658 296.808C540.018 297.444 540.198 298.164 540.198 298.968C540.198 299.772 540.018 300.498 539.658 301.146C539.298 301.794 538.782 302.304 538.11 302.676C537.45 303.036 536.67 303.216 535.77 303.216C534.894 303.216 534.114 303.048 533.43 302.712C532.758 302.364 532.23 301.872 531.846 301.236C531.474 300.6 531.288 299.844 531.288 298.968ZM533.826 298.986C533.826 299.61 534.006 300.132 534.366 300.552C534.726 300.96 535.182 301.164 535.734 301.164C536.31 301.164 536.772 300.96 537.12 300.552C537.48 300.144 537.66 299.622 537.66 298.986C537.66 298.35 537.48 297.828 537.12 297.42C536.772 297.012 536.31 296.808 535.734 296.808C535.182 296.808 534.726 297.018 534.366 297.438C534.006 297.846 533.826 298.362 533.826 298.986ZM547.655 294.756C548.399 294.756 549.017 294.978 549.509 295.422C550.013 295.866 550.271 296.43 550.283 297.114V303H547.763V298.05C547.727 297.282 547.343 296.898 546.611 296.898C546.035 296.898 545.573 297.168 545.225 297.708C544.877 298.248 544.703 298.944 544.703 299.796V303H542.183V295.134H544.469L544.649 296.394C544.937 295.878 545.333 295.476 545.837 295.188C546.353 294.9 546.959 294.756 547.655 294.756Z" fill="#555555"/>
<path d="M11.646 301.902C11.31 302.178 10.776 302.454 10.044 302.73C9.312 303.006 8.514 303.144 7.65 303.144C6.27 303.144 5.07 302.844 4.05 302.244C3.03 301.644 2.25 300.84 1.71 299.832C1.17 298.812 0.9 297.696 0.9 296.484C0.9 295.152 1.17 293.964 1.71 292.92C2.25 291.876 3.006 291.066 3.978 290.49C4.95 289.902 6.072 289.608 7.344 289.608C8.148 289.608 8.892 289.716 9.576 289.932C10.26 290.148 10.86 290.418 11.376 290.742L10.35 293.208C9.402 292.488 8.43 292.128 7.434 292.128C6.762 292.128 6.132 292.314 5.544 292.686C4.956 293.058 4.488 293.568 4.14 294.216C3.792 294.852 3.618 295.56 3.618 296.34C3.618 297.192 3.78 297.942 4.104 298.59C4.428 299.226 4.89 299.724 5.49 300.084C6.09 300.444 6.792 300.624 7.596 300.624C8.244 300.624 8.826 300.522 9.342 300.318C9.858 300.102 10.266 299.85 10.566 299.562L11.646 301.902ZM13.2348 298.968C13.2348 298.164 13.4208 297.444 13.7928 296.808C14.1768 296.172 14.7108 295.674 15.3948 295.314C16.0908 294.942 16.8768 294.756 17.7528 294.756C18.6288 294.756 19.3968 294.942 20.0568 295.314C20.7288 295.674 21.2448 296.172 21.6048 296.808C21.9648 297.444 22.1448 298.164 22.1448 298.968C22.1448 299.772 21.9648 300.498 21.6048 301.146C21.2448 301.794 20.7288 302.304 20.0568 302.676C19.3968 303.036 18.6168 303.216 17.7168 303.216C16.8408 303.216 16.0608 303.048 15.3768 302.712C14.7048 302.364 14.1768 301.872 13.7928 301.236C13.4208 300.6 13.2348 299.844 13.2348 298.968ZM15.7728 298.986C15.7728 299.61 15.9528 300.132 16.3128 300.552C16.6728 300.96 17.1288 301.164 17.6808 301.164C18.2568 301.164 18.7188 300.96 19.0668 300.552C19.4268 300.144 19.6068 299.622 19.6068 298.986C19.6068 298.35 19.4268 297.828 19.0668 297.42C18.7188 297.012 18.2568 296.808 17.6808 296.808C17.1288 296.808 16.6728 297.018 16.3128 297.438C15.9528 297.846 15.7728 298.362 15.7728 298.986ZM29.602 294.756C30.346 294.756 30.964 294.978 31.456 295.422C31.96 295.866 32.218 296.43 32.23 297.114V303H29.71V298.05C29.674 297.282 29.29 296.898 28.558 296.898C27.982 296.898 27.52 297.168 27.172 297.708C26.824 298.248 26.65 298.944 26.65 299.796V303H24.13V295.134H26.416L26.596 296.394C26.884 295.878 27.28 295.476 27.784 295.188C28.3 294.9 28.906 294.756 29.602 294.756ZM41.4955 302.298C41.1475 302.574 40.7095 302.796 40.1815 302.964C39.6655 303.132 39.1555 303.216 38.6515 303.216C37.2835 303.216 36.1975 302.85 35.3935 302.118C34.6015 301.374 34.2055 300.354 34.2055 299.058C34.2055 298.218 34.3975 297.486 34.7815 296.862C35.1775 296.226 35.6935 295.746 36.3295 295.422C36.9655 295.086 37.6495 294.918 38.3815 294.918C39.6895 294.918 40.7515 295.266 41.5675 295.962L40.3435 297.582C39.8275 297.174 39.2515 296.97 38.6155 296.97C38.0875 296.97 37.6375 297.168 37.2655 297.564C36.9055 297.96 36.7255 298.458 36.7255 299.058C36.7255 299.658 36.9235 300.162 37.3195 300.57C37.7155 300.966 38.2315 301.164 38.8675 301.164C39.4195 301.164 39.8755 301.014 40.2355 300.714L41.4955 302.298ZM47.3548 301.074C47.8588 301.074 48.3808 300.9 48.9208 300.552L50.0368 302.424C49.6048 302.664 49.1488 302.856 48.6688 303C48.1888 303.144 47.7328 303.216 47.3008 303.216C46.3648 303.216 45.5548 303.042 44.8708 302.694C44.1988 302.334 43.6888 301.836 43.3408 301.2C42.9928 300.552 42.8188 299.814 42.8188 298.986C42.8188 298.218 43.0168 297.51 43.4128 296.862C43.8208 296.214 44.3728 295.704 45.0688 295.332C45.7648 294.948 46.5268 294.756 47.3548 294.756C48.4828 294.756 49.4068 295.086 50.1268 295.746C50.8588 296.406 51.3328 297.348 51.5488 298.572L45.7888 300.408C46.1728 300.852 46.6948 301.074 47.3548 301.074ZM47.1568 296.718C46.5928 296.718 46.1428 296.91 45.8068 297.294C45.4708 297.678 45.3028 298.194 45.3028 298.842V299.004L48.7588 297.834C48.5068 297.09 47.9728 296.718 47.1568 296.718ZM58.816 294.738C59.548 294.738 60.202 294.912 60.778 295.26C61.354 295.608 61.804 296.106 62.128 296.754C62.464 297.402 62.632 298.164 62.632 299.04C62.632 299.904 62.446 300.654 62.074 301.29C61.714 301.914 61.204 302.394 60.544 302.73C59.896 303.054 59.152 303.216 58.312 303.216C57.856 303.216 57.406 303.138 56.962 302.982C56.53 302.814 56.17 302.58 55.882 302.28V306.78H53.38V294.954H55.54L55.756 295.89C56.716 295.122 57.736 294.738 58.816 294.738ZM57.808 301.236C58.432 301.236 58.966 301.032 59.41 300.624C59.854 300.216 60.076 299.7 60.076 299.076C60.076 298.428 59.872 297.9 59.464 297.492C59.068 297.072 58.576 296.862 57.988 296.862C57.496 296.862 57.076 296.964 56.728 297.168C56.392 297.36 56.116 297.654 55.9 298.05V299.976C56.032 300.36 56.266 300.666 56.602 300.894C56.95 301.122 57.352 301.236 57.808 301.236ZM67.8704 291.678V295.098H69.7784V297.06H67.8704V303H65.3504V297.06H64.1264V295.098H65.3504V291.678H67.8704Z" fill="#555555"/>
<path d="M348.172 105.125C357.064 118.395 362.18 134.221 362.18 151.387C362.18 197.406 324.905 234.659 278.86 234.659C271.551 234.659 264.364 233.685 257.542 231.98M238.296 224.189C212.837 209.945 195.539 182.675 195.539 151.387C195.539 105.368 232.814 68.1148 278.86 68.1148C299.934 68.1148 319.18 75.9063 333.92 88.8111M117.578 14.4263H79.5726M462.311 14.4263H130.247M462.311 21.9743L469.986 14.4263L462.433 7M462.311 306L469.986 298.33L462.433 290.904M25 274.956L32.5525 282.625L40.1049 275.199M165.086 298.452H79.5726M462.311 298.452H187.621M433.563 133.369C410.54 142.743 384.107 149.074 355.846 151.387M522 29.7659C522 70.4279 491.303 106.464 444.039 128.743M124.522 170.013C153.148 158.813 186.769 152.482 222.704 152.482M32.5525 274.956C32.5525 232.589 65.8076 195.336 116.36 173.3" stroke="#555555" stroke-width="3" stroke-miterlimit="10"/>
</svg>
