<svg width="432" height="547" viewBox="0 0 432 547" fill="none" xmlns="http://www.w3.org/2000/svg">
<path d="M188.768 173.432C190.027 173.432 191.008 173.747 191.712 174.376C192.427 175.005 192.784 175.885 192.784 177.016C192.784 177.667 192.651 178.275 192.384 178.84C192.128 179.405 191.707 179.864 191.12 180.216C190.544 180.568 189.813 180.744 188.928 180.744H187.216V185H185.664V173.432H188.768ZM188.928 179.24C189.483 179.24 189.931 179.123 190.272 178.888C190.624 178.653 190.875 178.371 191.024 178.04C191.173 177.699 191.248 177.368 191.248 177.048C191.248 176.493 191.067 176.003 190.704 175.576C190.341 175.139 189.776 174.92 189.008 174.92H187.216V179.24H188.928ZM196.252 179.944C196.422 179.581 196.662 179.261 196.972 178.984C197.292 178.707 197.628 178.493 197.98 178.344C198.332 178.195 198.641 178.115 198.908 178.104L198.844 179.592C198.364 179.571 197.926 179.667 197.532 179.88C197.148 180.093 196.844 180.392 196.62 180.776C196.406 181.149 196.3 181.549 196.3 181.976V185H194.812V178.376H196.14L196.252 179.944ZM199.97 181.624C199.97 180.973 200.125 180.381 200.434 179.848C200.754 179.304 201.191 178.877 201.746 178.568C202.311 178.259 202.946 178.104 203.65 178.104C204.354 178.104 204.978 178.259 205.522 178.568C206.077 178.877 206.503 179.299 206.802 179.832C207.111 180.365 207.266 180.963 207.266 181.624C207.266 182.285 207.111 182.888 206.802 183.432C206.503 183.965 206.077 184.387 205.522 184.696C204.967 185.005 204.333 185.16 203.618 185.16C202.925 185.16 202.301 185.016 201.746 184.728C201.191 184.429 200.754 184.013 200.434 183.48C200.125 182.947 199.97 182.328 199.97 181.624ZM201.474 181.64C201.474 182.056 201.565 182.44 201.746 182.792C201.938 183.144 202.194 183.421 202.514 183.624C202.845 183.827 203.207 183.928 203.602 183.928C204.221 183.928 204.733 183.709 205.138 183.272C205.543 182.835 205.746 182.291 205.746 181.64C205.746 180.989 205.543 180.445 205.138 180.008C204.733 179.56 204.221 179.336 203.602 179.336C203.197 179.336 202.834 179.443 202.514 179.656C202.194 179.859 201.938 180.136 201.746 180.488C201.565 180.84 201.474 181.224 201.474 181.64ZM213.505 178.104C214.102 178.104 214.646 178.248 215.137 178.536C215.638 178.824 216.033 179.229 216.321 179.752C216.609 180.275 216.753 180.883 216.753 181.576C216.753 182.301 216.598 182.936 216.289 183.48C215.979 184.024 215.558 184.44 215.025 184.728C214.502 185.016 213.931 185.16 213.313 185.16C212.769 185.16 212.273 185.053 211.825 184.84C211.387 184.627 211.03 184.339 210.753 183.976V185H209.265V172.6H210.753V179.256C211.03 178.904 211.409 178.627 211.889 178.424C212.379 178.211 212.918 178.104 213.505 178.104ZM212.993 183.88C213.643 183.88 214.177 183.661 214.593 183.224C215.019 182.787 215.233 182.237 215.233 181.576C215.233 181.149 215.131 180.765 214.929 180.424C214.737 180.072 214.47 179.795 214.129 179.592C213.787 179.389 213.409 179.288 212.993 179.288C212.449 179.288 211.969 179.437 211.553 179.736C211.147 180.024 210.881 180.408 210.753 180.888V182.232C210.881 182.712 211.147 183.107 211.553 183.416C211.958 183.725 212.438 183.88 212.993 183.88ZM220.237 172.6V185H218.749V172.6H220.237ZM225.931 183.88C226.486 183.88 227.025 183.688 227.547 183.304L228.235 184.408C227.883 184.643 227.499 184.829 227.083 184.968C226.678 185.096 226.283 185.16 225.899 185.16C225.163 185.16 224.518 185.011 223.963 184.712C223.419 184.403 222.998 183.981 222.699 183.448C222.401 182.915 222.251 182.312 222.251 181.64C222.251 180.989 222.411 180.397 222.731 179.864C223.062 179.32 223.51 178.893 224.075 178.584C224.641 178.264 225.259 178.104 225.931 178.104C226.795 178.104 227.515 178.36 228.091 178.872C228.678 179.373 229.078 180.077 229.291 180.984L224.043 182.824C224.235 183.155 224.491 183.416 224.811 183.608C225.142 183.789 225.515 183.88 225.931 183.88ZM225.819 179.288C225.211 179.288 224.71 179.501 224.315 179.928C223.921 180.355 223.723 180.899 223.723 181.56C223.723 181.72 223.729 181.843 223.739 181.928L227.595 180.504C227.435 180.141 227.206 179.848 226.907 179.624C226.619 179.4 226.257 179.288 225.819 179.288ZM239.636 178.104C240.276 178.104 240.782 178.285 241.156 178.648C241.54 179.011 241.742 179.491 241.764 180.088V185H240.276V180.632C240.244 179.853 239.892 179.443 239.22 179.4C238.836 179.4 238.489 179.517 238.18 179.752C237.881 179.976 237.646 180.275 237.476 180.648C237.305 181.021 237.214 181.421 237.204 181.848V185H235.7V180.632C235.668 179.853 235.305 179.443 234.612 179.4C234.238 179.4 233.897 179.517 233.588 179.752C233.289 179.976 233.054 180.28 232.884 180.664C232.713 181.037 232.628 181.437 232.628 181.864V185H231.14V178.376H232.484L232.596 179.624C232.852 179.144 233.198 178.771 233.636 178.504C234.084 178.237 234.59 178.104 235.156 178.104C235.689 178.104 236.137 178.232 236.5 178.488C236.862 178.733 237.097 179.075 237.204 179.512C237.481 179.075 237.833 178.733 238.26 178.488C238.686 178.232 239.145 178.104 239.636 178.104Z" fill="#555555"/>
<path d="M190.816 331C191.477 331.256 192 331.624 192.384 332.104C192.768 332.573 192.96 333.123 192.96 333.752C192.96 334.488 192.779 335.101 192.416 335.592C192.064 336.072 191.595 336.429 191.008 336.664C190.432 336.888 189.797 337 189.104 337H185.664V325.432H188.656C189.84 325.432 190.757 325.677 191.408 326.168C192.059 326.648 192.384 327.373 192.384 328.344C192.384 328.952 192.245 329.485 191.968 329.944C191.701 330.392 191.317 330.744 190.816 331ZM187.216 330.488H188.976C189.573 330.488 190.021 330.317 190.32 329.976C190.629 329.635 190.784 329.197 190.784 328.664C190.784 328.077 190.603 327.64 190.24 327.352C189.877 327.064 189.371 326.92 188.72 326.92H187.216V330.488ZM189.04 335.56C189.712 335.56 190.267 335.411 190.704 335.112C191.141 334.803 191.36 334.355 191.36 333.768C191.36 333.16 191.12 332.712 190.64 332.424C190.171 332.136 189.6 331.992 188.928 331.992H187.216V335.56H189.04ZM196.642 331.944C196.813 331.581 197.053 331.261 197.362 330.984C197.682 330.707 198.018 330.493 198.37 330.344C198.722 330.195 199.032 330.115 199.298 330.104L199.234 331.592C198.754 331.571 198.317 331.667 197.922 331.88C197.538 332.093 197.234 332.392 197.01 332.776C196.797 333.149 196.69 333.549 196.69 333.976V337H195.202V330.376H196.53L196.642 331.944ZM207.862 330.376V337H206.374V335.912C206.139 336.221 205.798 336.509 205.35 336.776C204.902 337.032 204.395 337.16 203.83 337.16C203.2 337.16 202.63 337.027 202.118 336.76C201.616 336.483 201.216 336.083 200.918 335.56C200.63 335.037 200.486 334.413 200.486 333.688C200.486 332.963 200.635 332.333 200.934 331.8C201.243 331.256 201.654 330.84 202.166 330.552C202.688 330.253 203.264 330.104 203.894 330.104C204.459 330.104 204.95 330.227 205.366 330.472C205.782 330.717 206.118 331.037 206.374 331.432L206.486 330.376H207.862ZM204.23 335.928C204.774 335.928 205.238 335.779 205.622 335.48C206.016 335.171 206.267 334.755 206.374 334.232V332.92C206.246 332.451 205.979 332.072 205.574 331.784C205.168 331.485 204.704 331.336 204.182 331.336C203.787 331.336 203.419 331.432 203.078 331.624C202.747 331.816 202.48 332.088 202.278 332.44C202.086 332.781 201.99 333.171 201.99 333.608C201.99 334.035 202.091 334.424 202.294 334.776C202.496 335.128 202.768 335.411 203.11 335.624C203.451 335.827 203.824 335.928 204.23 335.928ZM211.94 330.376V337H210.452V330.376H211.94ZM210.34 327.992C210.34 327.757 210.431 327.56 210.612 327.4C210.794 327.24 211.002 327.16 211.236 327.16C211.471 327.16 211.674 327.24 211.844 327.4C212.026 327.56 212.116 327.757 212.116 327.992C212.116 328.227 212.026 328.424 211.844 328.584C211.674 328.744 211.471 328.824 211.236 328.824C211.002 328.824 210.794 328.744 210.612 328.584C210.431 328.424 210.34 328.227 210.34 327.992ZM218.642 330.12C219.261 330.12 219.773 330.307 220.178 330.68C220.584 331.043 220.792 331.517 220.802 332.104V337H219.298V332.616C219.277 332.243 219.165 331.949 218.962 331.736C218.76 331.523 218.456 331.411 218.05 331.4C217.464 331.4 216.978 331.635 216.594 332.104C216.21 332.573 216.018 333.171 216.018 333.896V337H214.53V330.376H215.874L215.97 331.656C216.205 331.176 216.557 330.803 217.026 330.536C217.496 330.259 218.034 330.12 218.642 330.12ZM225.918 332.904V334.216H222.942V332.904H225.918ZM191.648 345.496C191.232 345.272 190.789 345.091 190.32 344.952C189.851 344.813 189.408 344.744 188.992 344.744C188.363 344.744 187.861 344.888 187.488 345.176C187.125 345.453 186.944 345.837 186.944 346.328C186.944 346.808 187.157 347.203 187.584 347.512C188.021 347.811 188.64 348.109 189.44 348.408C190.037 348.621 190.539 348.856 190.944 349.112C191.36 349.357 191.701 349.704 191.968 350.152C192.245 350.589 192.384 351.149 192.384 351.832C192.384 352.451 192.229 353.011 191.92 353.512C191.611 354.013 191.168 354.408 190.592 354.696C190.027 354.984 189.36 355.128 188.592 355.128C187.877 355.128 187.189 355.016 186.528 354.792C185.867 354.557 185.285 354.264 184.784 353.912L185.472 352.68C185.867 352.979 186.341 353.235 186.896 353.448C187.451 353.651 187.968 353.752 188.448 353.752C189.067 353.752 189.605 353.592 190.064 353.272C190.533 352.952 190.768 352.477 190.768 351.848C190.768 351.315 190.571 350.893 190.176 350.584C189.792 350.264 189.248 349.965 188.544 349.688C187.893 349.443 187.349 349.203 186.912 348.968C186.485 348.733 186.117 348.413 185.808 348.008C185.499 347.592 185.344 347.075 185.344 346.456C185.344 345.549 185.659 344.819 186.288 344.264C186.928 343.699 187.755 343.4 188.768 343.368C190.016 343.368 191.173 343.677 192.24 344.296L191.648 345.496ZM196.753 345.464V348.392H198.561V349.576H196.753V355H195.249V349.576H194.033V348.392H195.249V345.464H196.753ZM199.798 351.624C199.798 350.973 199.953 350.381 200.262 349.848C200.582 349.304 201.019 348.877 201.574 348.568C202.139 348.259 202.774 348.104 203.478 348.104C204.182 348.104 204.806 348.259 205.35 348.568C205.905 348.877 206.331 349.299 206.63 349.832C206.939 350.365 207.094 350.963 207.094 351.624C207.094 352.285 206.939 352.888 206.63 353.432C206.331 353.965 205.905 354.387 205.35 354.696C204.795 355.005 204.161 355.16 203.446 355.16C202.753 355.16 202.129 355.016 201.574 354.728C201.019 354.429 200.582 354.013 200.262 353.48C199.953 352.947 199.798 352.328 199.798 351.624ZM201.302 351.64C201.302 352.056 201.393 352.44 201.574 352.792C201.766 353.144 202.022 353.421 202.342 353.624C202.673 353.827 203.035 353.928 203.43 353.928C204.049 353.928 204.561 353.709 204.966 353.272C205.371 352.835 205.574 352.291 205.574 351.64C205.574 350.989 205.371 350.445 204.966 350.008C204.561 349.56 204.049 349.336 203.43 349.336C203.025 349.336 202.662 349.443 202.342 349.656C202.022 349.859 201.766 350.136 201.574 350.488C201.393 350.84 201.302 351.224 201.302 351.64ZM210.533 349.944C210.704 349.581 210.944 349.261 211.253 348.984C211.573 348.707 211.909 348.493 212.261 348.344C212.613 348.195 212.922 348.115 213.189 348.104L213.125 349.592C212.645 349.571 212.208 349.667 211.813 349.88C211.429 350.093 211.125 350.392 210.901 350.776C210.688 351.149 210.581 351.549 210.581 351.976V355H209.093V348.376H210.421L210.533 349.944ZM223.605 348.104C224.245 348.104 224.751 348.285 225.125 348.648C225.509 349.011 225.711 349.491 225.733 350.088V355H224.245V350.632C224.213 349.853 223.861 349.443 223.189 349.4C222.805 349.4 222.458 349.517 222.149 349.752C221.85 349.976 221.615 350.275 221.445 350.648C221.274 351.021 221.183 351.421 221.173 351.848V355H219.669V350.632C219.637 349.853 219.274 349.443 218.581 349.4C218.207 349.4 217.866 349.517 217.557 349.752C217.258 349.976 217.023 350.28 216.853 350.664C216.682 351.037 216.597 351.437 216.597 351.864V355H215.109V348.376H216.453L216.565 349.624C216.821 349.144 217.167 348.771 217.605 348.504C218.053 348.237 218.559 348.104 219.125 348.104C219.658 348.104 220.106 348.232 220.469 348.488C220.831 348.733 221.066 349.075 221.173 349.512C221.45 349.075 221.802 348.733 222.229 348.488C222.655 348.232 223.114 348.104 223.605 348.104ZM229.8 348.376V355H228.312V348.376H229.8ZM228.2 345.992C228.2 345.757 228.29 345.56 228.472 345.4C228.653 345.24 228.861 345.16 229.096 345.16C229.33 345.16 229.533 345.24 229.704 345.4C229.885 345.56 229.976 345.757 229.976 345.992C229.976 346.227 229.885 346.424 229.704 346.584C229.533 346.744 229.33 346.824 229.096 346.824C228.861 346.824 228.653 346.744 228.472 346.584C228.29 346.424 228.2 346.227 228.2 345.992ZM236.502 348.12C237.12 348.12 237.632 348.307 238.038 348.68C238.443 349.043 238.651 349.517 238.662 350.104V355H237.158V350.616C237.136 350.243 237.024 349.949 236.822 349.736C236.619 349.523 236.315 349.411 235.91 349.4C235.323 349.4 234.838 349.635 234.454 350.104C234.07 350.573 233.878 351.171 233.878 351.896V355H232.39V348.376H233.734L233.83 349.656C234.064 349.176 234.416 348.803 234.886 348.536C235.355 348.259 235.894 348.12 236.502 348.12ZM248.226 348.376V355.048C248.226 355.656 248.071 356.205 247.762 356.696C247.452 357.187 247.01 357.576 246.434 357.864C245.868 358.152 245.202 358.296 244.434 358.296C243.762 358.296 243.18 358.184 242.69 357.96C242.21 357.736 241.724 357.405 241.234 356.968L242.114 355.944C242.476 356.285 242.839 356.541 243.202 356.712C243.564 356.893 243.964 356.984 244.402 356.984C245.138 356.984 245.703 356.808 246.098 356.456C246.503 356.104 246.711 355.629 246.722 355.032L246.738 353.784C246.492 354.2 246.13 354.536 245.65 354.792C245.18 355.037 244.636 355.16 244.018 355.16C243.41 355.16 242.85 355.005 242.338 354.696C241.826 354.387 241.415 353.965 241.106 353.432C240.807 352.899 240.658 352.307 240.658 351.656C240.658 350.984 240.812 350.381 241.122 349.848C241.442 349.304 241.868 348.877 242.402 348.568C242.935 348.259 243.506 348.104 244.114 348.104C244.679 348.104 245.202 348.216 245.682 348.44C246.162 348.664 246.519 348.952 246.754 349.304L246.866 348.376H248.226ZM244.45 353.928C245.015 353.928 245.506 353.773 245.922 353.464C246.338 353.155 246.61 352.749 246.738 352.248V350.936C246.588 350.456 246.306 350.072 245.89 349.784C245.474 349.485 244.994 349.336 244.45 349.336C243.799 349.336 243.255 349.549 242.818 349.976C242.38 350.403 242.162 350.947 242.162 351.608C242.162 352.035 242.263 352.424 242.466 352.776C242.668 353.128 242.946 353.411 243.298 353.624C243.65 353.827 244.034 353.928 244.45 353.928Z" fill="#555555"/>
<path d="M148.032 404L145.312 399.728C145.227 399.739 145.099 399.744 144.928 399.744H143.216V404H141.664V392.432H144.752C145.541 392.432 146.245 392.571 146.864 392.848C147.483 393.125 147.968 393.536 148.32 394.08C148.672 394.613 148.848 395.259 148.848 396.016C148.848 396.731 148.688 397.387 148.368 397.984C148.059 398.581 147.579 399.035 146.928 399.344L149.84 404H148.032ZM144.896 398.24C145.728 398.24 146.325 398.021 146.688 397.584C147.061 397.147 147.248 396.645 147.248 396.08C147.248 395.739 147.168 395.403 147.008 395.072C146.859 394.741 146.613 394.469 146.272 394.256C145.941 394.032 145.52 393.92 145.008 393.92H143.216V398.24H144.896ZM154.759 402.88C155.314 402.88 155.853 402.688 156.375 402.304L157.063 403.408C156.711 403.643 156.327 403.829 155.911 403.968C155.506 404.096 155.111 404.16 154.727 404.16C153.991 404.16 153.346 404.011 152.791 403.712C152.247 403.403 151.826 402.981 151.527 402.448C151.229 401.915 151.079 401.312 151.079 400.64C151.079 399.989 151.239 399.397 151.559 398.864C151.89 398.32 152.338 397.893 152.903 397.584C153.469 397.264 154.087 397.104 154.759 397.104C155.623 397.104 156.343 397.36 156.919 397.872C157.506 398.373 157.906 399.077 158.119 399.984L152.871 401.824C153.063 402.155 153.319 402.416 153.639 402.608C153.97 402.789 154.343 402.88 154.759 402.88ZM154.647 398.288C154.039 398.288 153.538 398.501 153.143 398.928C152.749 399.355 152.551 399.899 152.551 400.56C152.551 400.72 152.557 400.843 152.567 400.928L156.423 399.504C156.263 399.141 156.034 398.848 155.735 398.624C155.447 398.4 155.085 398.288 154.647 398.288ZM161.84 404.144C161.349 404.144 160.88 404.059 160.432 403.888C159.995 403.717 159.637 403.467 159.36 403.136L160 402.272C160.267 402.528 160.544 402.725 160.832 402.864C161.131 403.003 161.424 403.072 161.712 403.072C162.064 403.072 162.352 403.003 162.576 402.864C162.8 402.725 162.912 402.512 162.912 402.224C162.912 402 162.843 401.819 162.704 401.68C162.565 401.541 162.405 401.44 162.224 401.376C162.053 401.312 161.76 401.216 161.344 401.088C160.213 400.725 159.648 400.08 159.648 399.152C159.648 398.597 159.851 398.123 160.256 397.728C160.672 397.333 161.248 397.136 161.984 397.136C162.453 397.136 162.869 397.195 163.232 397.312C163.595 397.429 163.931 397.616 164.24 397.872L163.648 398.784C163.477 398.603 163.259 398.459 162.992 398.352C162.736 398.245 162.491 398.187 162.256 398.176C161.957 398.176 161.701 398.251 161.488 398.4C161.275 398.539 161.168 398.731 161.168 398.976C161.168 399.179 161.237 399.349 161.376 399.488C161.515 399.616 161.659 399.712 161.808 399.776C161.957 399.829 162.251 399.925 162.688 400.064C163.232 400.245 163.653 400.48 163.952 400.768C164.261 401.056 164.416 401.445 164.416 401.936C164.416 402.576 164.192 403.104 163.744 403.52C163.296 403.936 162.661 404.144 161.84 404.144ZM169.603 402.88C170.158 402.88 170.696 402.688 171.219 402.304L171.907 403.408C171.555 403.643 171.171 403.829 170.755 403.968C170.35 404.096 169.955 404.16 169.571 404.16C168.835 404.16 168.19 404.011 167.635 403.712C167.091 403.403 166.67 402.981 166.371 402.448C166.072 401.915 165.923 401.312 165.923 400.64C165.923 399.989 166.083 399.397 166.403 398.864C166.734 398.32 167.182 397.893 167.747 397.584C168.312 397.264 168.931 397.104 169.603 397.104C170.467 397.104 171.187 397.36 171.763 397.872C172.35 398.373 172.75 399.077 172.963 399.984L167.715 401.824C167.907 402.155 168.163 402.416 168.483 402.608C168.814 402.789 169.187 402.88 169.603 402.88ZM169.491 398.288C168.883 398.288 168.382 398.501 167.987 398.928C167.592 399.355 167.395 399.899 167.395 400.56C167.395 400.72 167.4 400.843 167.411 400.928L171.267 399.504C171.107 399.141 170.878 398.848 170.579 398.624C170.291 398.4 169.928 398.288 169.491 398.288ZM181.612 397.376V404H180.124V402.912C179.889 403.221 179.548 403.509 179.1 403.776C178.652 404.032 178.145 404.16 177.58 404.16C176.95 404.16 176.38 404.027 175.868 403.76C175.366 403.483 174.966 403.083 174.668 402.56C174.38 402.037 174.236 401.413 174.236 400.688C174.236 399.963 174.385 399.333 174.684 398.8C174.993 398.256 175.404 397.84 175.916 397.552C176.438 397.253 177.014 397.104 177.644 397.104C178.209 397.104 178.7 397.227 179.116 397.472C179.532 397.717 179.868 398.037 180.124 398.432L180.236 397.376H181.612ZM177.98 402.928C178.524 402.928 178.988 402.779 179.372 402.48C179.766 402.171 180.017 401.755 180.124 401.232V399.92C179.996 399.451 179.729 399.072 179.324 398.784C178.918 398.485 178.454 398.336 177.932 398.336C177.537 398.336 177.169 398.432 176.828 398.624C176.497 398.816 176.23 399.088 176.028 399.44C175.836 399.781 175.74 400.171 175.74 400.608C175.74 401.035 175.841 401.424 176.044 401.776C176.246 402.128 176.518 402.411 176.86 402.624C177.201 402.827 177.574 402.928 177.98 402.928ZM185.642 398.944C185.813 398.581 186.053 398.261 186.362 397.984C186.682 397.707 187.018 397.493 187.37 397.344C187.722 397.195 188.032 397.115 188.298 397.104L188.234 398.592C187.754 398.571 187.317 398.667 186.922 398.88C186.538 399.093 186.234 399.392 186.01 399.776C185.797 400.149 185.69 400.549 185.69 400.976V404H184.202V397.376H185.53L185.642 398.944ZM195.313 403.376C195.014 403.621 194.657 403.813 194.241 403.952C193.835 404.091 193.419 404.16 192.993 404.16C192.278 404.16 191.643 404.016 191.089 403.728C190.545 403.44 190.118 403.035 189.809 402.512C189.51 401.979 189.361 401.365 189.361 400.672C189.361 399.989 189.521 399.387 189.841 398.864C190.161 398.331 190.587 397.92 191.121 397.632C191.654 397.344 192.23 397.2 192.849 397.2C193.862 397.2 194.699 397.477 195.361 398.032L194.609 399.008C194.395 398.848 194.15 398.715 193.873 398.608C193.595 398.491 193.297 398.432 192.977 398.432C192.582 398.432 192.219 398.533 191.889 398.736C191.569 398.928 191.313 399.195 191.121 399.536C190.939 399.877 190.849 400.256 190.849 400.672C190.849 401.088 190.945 401.467 191.137 401.808C191.339 402.149 191.611 402.421 191.953 402.624C192.294 402.827 192.683 402.928 193.121 402.928C193.665 402.928 194.139 402.768 194.545 402.448L195.313 403.376ZM201.346 397.12C201.964 397.12 202.476 397.307 202.882 397.68C203.287 398.043 203.495 398.517 203.506 399.104V404H202.002V399.616C201.98 399.243 201.868 398.949 201.666 398.736C201.463 398.523 201.159 398.411 200.754 398.4C200.37 398.4 200.023 398.507 199.714 398.72C199.404 398.933 199.159 399.232 198.978 399.616C198.807 400 198.722 400.427 198.722 400.896V404H197.234V391.6H198.69V398.576C198.935 398.139 199.287 397.787 199.746 397.52C200.215 397.253 200.748 397.12 201.346 397.12Z" fill="#555555"/>
<path d="M347.648 524.496C347.232 524.272 346.789 524.091 346.32 523.952C345.851 523.813 345.408 523.744 344.992 523.744C344.363 523.744 343.861 523.888 343.488 524.176C343.125 524.453 342.944 524.837 342.944 525.328C342.944 525.808 343.157 526.203 343.584 526.512C344.021 526.811 344.64 527.109 345.44 527.408C346.037 527.621 346.539 527.856 346.944 528.112C347.36 528.357 347.701 528.704 347.968 529.152C348.245 529.589 348.384 530.149 348.384 530.832C348.384 531.451 348.229 532.011 347.92 532.512C347.611 533.013 347.168 533.408 346.592 533.696C346.027 533.984 345.36 534.128 344.592 534.128C343.877 534.128 343.189 534.016 342.528 533.792C341.867 533.557 341.285 533.264 340.784 532.912L341.472 531.68C341.867 531.979 342.341 532.235 342.896 532.448C343.451 532.651 343.968 532.752 344.448 532.752C345.067 532.752 345.605 532.592 346.064 532.272C346.533 531.952 346.768 531.477 346.768 530.848C346.768 530.315 346.571 529.893 346.176 529.584C345.792 529.264 345.248 528.965 344.544 528.688C343.893 528.443 343.349 528.203 342.912 527.968C342.485 527.733 342.117 527.413 341.808 527.008C341.499 526.592 341.344 526.075 341.344 525.456C341.344 524.549 341.659 523.819 342.288 523.264C342.928 522.699 343.755 522.4 344.768 522.368C346.016 522.368 347.173 522.677 348.24 523.296L347.648 524.496ZM350.033 530.624C350.033 529.973 350.187 529.381 350.497 528.848C350.817 528.304 351.254 527.877 351.809 527.568C352.374 527.259 353.009 527.104 353.713 527.104C354.417 527.104 355.041 527.259 355.585 527.568C356.139 527.877 356.566 528.299 356.865 528.832C357.174 529.365 357.329 529.963 357.329 530.624C357.329 531.285 357.174 531.888 356.865 532.432C356.566 532.965 356.139 533.387 355.585 533.696C355.03 534.005 354.395 534.16 353.681 534.16C352.987 534.16 352.363 534.016 351.809 533.728C351.254 533.429 350.817 533.013 350.497 532.48C350.187 531.947 350.033 531.328 350.033 530.624ZM351.537 530.64C351.537 531.056 351.627 531.44 351.809 531.792C352.001 532.144 352.257 532.421 352.577 532.624C352.907 532.827 353.27 532.928 353.665 532.928C354.283 532.928 354.795 532.709 355.201 532.272C355.606 531.835 355.809 531.291 355.809 530.64C355.809 529.989 355.606 529.445 355.201 529.008C354.795 528.56 354.283 528.336 353.665 528.336C353.259 528.336 352.897 528.443 352.577 528.656C352.257 528.859 352.001 529.136 351.809 529.488C351.627 529.84 351.537 530.224 351.537 530.64ZM360.815 521.6V534H359.327V521.6H360.815ZM369.565 527.376V534H368.221L368.125 532.736C367.901 533.184 367.555 533.552 367.085 533.84C366.616 534.117 366.093 534.256 365.517 534.256C364.909 534.256 364.408 534.075 364.013 533.712C363.629 533.339 363.427 532.859 363.405 532.272V527.376H364.893V531.744C364.915 532.117 365.021 532.416 365.213 532.64C365.416 532.853 365.715 532.965 366.109 532.976C366.472 532.976 366.803 532.869 367.101 532.656C367.4 532.432 367.635 532.128 367.805 531.744C367.987 531.36 368.077 530.933 368.077 530.464V527.376H369.565ZM374.299 524.464V527.392H376.107V528.576H374.299V534H372.795V528.576H371.579V527.392H372.795V524.464H374.299ZM379.409 527.376V534H377.921V527.376H379.409ZM377.809 524.992C377.809 524.757 377.9 524.56 378.081 524.4C378.262 524.24 378.47 524.16 378.705 524.16C378.94 524.16 379.142 524.24 379.313 524.4C379.494 524.56 379.585 524.757 379.585 524.992C379.585 525.227 379.494 525.424 379.313 525.584C379.142 525.744 378.94 525.824 378.705 525.824C378.47 525.824 378.262 525.744 378.081 525.584C377.9 525.424 377.809 525.227 377.809 524.992ZM381.423 530.624C381.423 529.973 381.578 529.381 381.887 528.848C382.207 528.304 382.644 527.877 383.199 527.568C383.764 527.259 384.399 527.104 385.103 527.104C385.807 527.104 386.431 527.259 386.975 527.568C387.53 527.877 387.956 528.299 388.255 528.832C388.564 529.365 388.719 529.963 388.719 530.624C388.719 531.285 388.564 531.888 388.255 532.432C387.956 532.965 387.53 533.387 386.975 533.696C386.42 534.005 385.786 534.16 385.071 534.16C384.378 534.16 383.754 534.016 383.199 533.728C382.644 533.429 382.207 533.013 381.887 532.48C381.578 531.947 381.423 531.328 381.423 530.624ZM382.927 530.64C382.927 531.056 383.018 531.44 383.199 531.792C383.391 532.144 383.647 532.421 383.967 532.624C384.298 532.827 384.66 532.928 385.055 532.928C385.674 532.928 386.186 532.709 386.591 532.272C386.996 531.835 387.199 531.291 387.199 530.64C387.199 529.989 386.996 529.445 386.591 529.008C386.186 528.56 385.674 528.336 385.055 528.336C384.65 528.336 384.287 528.443 383.967 528.656C383.647 528.859 383.391 529.136 383.199 529.488C383.018 529.84 382.927 530.224 382.927 530.64ZM394.83 527.12C395.449 527.12 395.961 527.307 396.366 527.68C396.771 528.043 396.979 528.517 396.99 529.104V534H395.486V529.616C395.465 529.243 395.353 528.949 395.15 528.736C394.947 528.523 394.643 528.411 394.238 528.4C393.651 528.4 393.166 528.635 392.782 529.104C392.398 529.573 392.206 530.171 392.206 530.896V534H390.718V527.376H392.062L392.158 528.656C392.393 528.176 392.745 527.803 393.214 527.536C393.683 527.259 394.222 527.12 394.83 527.12Z" fill="#555555"/>
<path d="M4.768 522.432C6.02667 522.432 7.008 522.747 7.712 523.376C8.42667 524.005 8.784 524.885 8.784 526.016C8.784 526.667 8.65067 527.275 8.384 527.84C8.128 528.405 7.70667 528.864 7.12 529.216C6.544 529.568 5.81333 529.744 4.928 529.744H3.216V534H1.664V522.432H4.768ZM4.928 528.24C5.48267 528.24 5.93067 528.123 6.272 527.888C6.624 527.653 6.87467 527.371 7.024 527.04C7.17333 526.699 7.248 526.368 7.248 526.048C7.248 525.493 7.06667 525.003 6.704 524.576C6.34133 524.139 5.776 523.92 5.008 523.92H3.216V528.24H4.928ZM12.2516 528.944C12.4223 528.581 12.6623 528.261 12.9716 527.984C13.2916 527.707 13.6276 527.493 13.9796 527.344C14.3316 527.195 14.641 527.115 14.9076 527.104L14.8436 528.592C14.3636 528.571 13.9263 528.667 13.5316 528.88C13.1476 529.093 12.8436 529.392 12.6196 529.776C12.4063 530.149 12.2996 530.549 12.2996 530.976V534H10.8116V527.376H12.1396L12.2516 528.944ZM15.97 530.624C15.97 529.973 16.1247 529.381 16.434 528.848C16.754 528.304 17.1913 527.877 17.746 527.568C18.3113 527.259 18.946 527.104 19.65 527.104C20.354 527.104 20.978 527.259 21.522 527.568C22.0767 527.877 22.5033 528.299 22.802 528.832C23.1113 529.365 23.266 529.963 23.266 530.624C23.266 531.285 23.1113 531.888 22.802 532.432C22.5033 532.965 22.0767 533.387 21.522 533.696C20.9673 534.005 20.3327 534.16 19.618 534.16C18.9247 534.16 18.3007 534.016 17.746 533.728C17.1913 533.429 16.754 533.013 16.434 532.48C16.1247 531.947 15.97 531.328 15.97 530.624ZM17.474 530.64C17.474 531.056 17.5647 531.44 17.746 531.792C17.938 532.144 18.194 532.421 18.514 532.624C18.8447 532.827 19.2073 532.928 19.602 532.928C20.2207 532.928 20.7327 532.709 21.138 532.272C21.5433 531.835 21.746 531.291 21.746 530.64C21.746 529.989 21.5433 529.445 21.138 529.008C20.7327 528.56 20.2207 528.336 19.602 528.336C19.1967 528.336 18.834 528.443 18.514 528.656C18.194 528.859 17.938 529.136 17.746 529.488C17.5647 529.84 17.474 530.224 17.474 530.64ZM24.4648 536.272C25.1048 535.728 25.4248 534.965 25.4248 533.984V527.376H26.9288V534.048C26.9288 534.805 26.8008 535.44 26.5448 535.952C26.2994 536.464 25.9048 536.88 25.3608 537.2L24.4648 536.272ZM25.3128 524.992C25.3128 524.757 25.4034 524.56 25.5848 524.4C25.7661 524.24 25.9741 524.16 26.2088 524.16C26.4434 524.16 26.6461 524.24 26.8168 524.4C26.9981 524.56 27.0888 524.757 27.0888 524.992C27.0888 525.227 26.9981 525.424 26.8168 525.584C26.6461 525.744 26.4434 525.824 26.2088 525.824C25.9741 525.824 25.7661 525.744 25.5848 525.584C25.4034 525.424 25.3128 525.227 25.3128 524.992ZM32.525 532.88C33.0797 532.88 33.6183 532.688 34.141 532.304L34.829 533.408C34.477 533.643 34.093 533.829 33.677 533.968C33.2717 534.096 32.877 534.16 32.493 534.16C31.757 534.16 31.1117 534.011 30.557 533.712C30.013 533.403 29.5917 532.981 29.293 532.448C28.9943 531.915 28.845 531.312 28.845 530.64C28.845 529.989 29.005 529.397 29.325 528.864C29.6557 528.32 30.1037 527.893 30.669 527.584C31.2343 527.264 31.853 527.104 32.525 527.104C33.389 527.104 34.109 527.36 34.685 527.872C35.2717 528.373 35.6717 529.077 35.885 529.984L30.637 531.824C30.829 532.155 31.085 532.416 31.405 532.608C31.7357 532.789 32.109 532.88 32.525 532.88ZM32.413 528.288C31.805 528.288 31.3037 528.501 30.909 528.928C30.5143 529.355 30.317 529.899 30.317 530.56C30.317 530.72 30.3223 530.843 30.333 530.928L34.189 529.504C34.029 529.141 33.7997 528.848 33.501 528.624C33.213 528.4 32.8503 528.288 32.413 528.288ZM43.1095 533.376C42.8108 533.621 42.4535 533.813 42.0375 533.952C41.6322 534.091 41.2162 534.16 40.7895 534.16C40.0748 534.16 39.4402 534.016 38.8855 533.728C38.3415 533.44 37.9148 533.035 37.6055 532.512C37.3068 531.979 37.1575 531.365 37.1575 530.672C37.1575 529.989 37.3175 529.387 37.6375 528.864C37.9575 528.331 38.3842 527.92 38.9175 527.632C39.4508 527.344 40.0268 527.2 40.6455 527.2C41.6588 527.2 42.4962 527.477 43.1575 528.032L42.4055 529.008C42.1922 528.848 41.9468 528.715 41.6695 528.608C41.3922 528.491 41.0935 528.432 40.7735 528.432C40.3788 528.432 40.0162 528.533 39.6855 528.736C39.3655 528.928 39.1095 529.195 38.9175 529.536C38.7362 529.877 38.6455 530.256 38.6455 530.672C38.6455 531.088 38.7415 531.467 38.9335 531.808C39.1362 532.149 39.4082 532.421 39.7495 532.624C40.0908 532.827 40.4802 532.928 40.9175 532.928C41.4615 532.928 41.9362 532.768 42.3415 532.448L43.1095 533.376ZM47.1744 524.464V527.392H48.9824V528.576H47.1744V534H45.6704V528.576H44.4544V527.392H45.6704V524.464H47.1744Z" fill="#555555"/>
<path d="M152.216 431.432V443H150.664V431.432H152.216ZM159.283 436.12C159.902 436.12 160.414 436.307 160.819 436.68C161.224 437.043 161.432 437.517 161.443 438.104V443H159.939V438.616C159.918 438.243 159.806 437.949 159.603 437.736C159.4 437.523 159.096 437.411 158.691 437.4C158.104 437.4 157.619 437.635 157.235 438.104C156.851 438.573 156.659 439.171 156.659 439.896V443H155.171V436.376H156.515L156.611 437.656C156.846 437.176 157.198 436.803 157.667 436.536C158.136 436.259 158.675 436.12 159.283 436.12ZM165.887 443.144C165.396 443.144 164.927 443.059 164.479 442.888C164.041 442.717 163.684 442.467 163.407 442.136L164.047 441.272C164.313 441.528 164.591 441.725 164.879 441.864C165.177 442.003 165.471 442.072 165.759 442.072C166.111 442.072 166.399 442.003 166.623 441.864C166.847 441.725 166.959 441.512 166.959 441.224C166.959 441 166.889 440.819 166.751 440.68C166.612 440.541 166.452 440.44 166.271 440.376C166.1 440.312 165.807 440.216 165.391 440.088C164.26 439.725 163.695 439.08 163.695 438.152C163.695 437.597 163.897 437.123 164.303 436.728C164.719 436.333 165.295 436.136 166.031 436.136C166.5 436.136 166.916 436.195 167.279 436.312C167.641 436.429 167.977 436.616 168.287 436.872L167.695 437.784C167.524 437.603 167.305 437.459 167.039 437.352C166.783 437.245 166.537 437.187 166.303 437.176C166.004 437.176 165.748 437.251 165.535 437.4C165.321 437.539 165.215 437.731 165.215 437.976C165.215 438.179 165.284 438.349 165.423 438.488C165.561 438.616 165.705 438.712 165.855 438.776C166.004 438.829 166.297 438.925 166.735 439.064C167.279 439.245 167.7 439.48 167.999 439.768C168.308 440.056 168.463 440.445 168.463 440.936C168.463 441.576 168.239 442.104 167.791 442.52C167.343 442.936 166.708 443.144 165.887 443.144ZM172.034 436.376V443H170.546V436.376H172.034ZM170.434 433.992C170.434 433.757 170.525 433.56 170.706 433.4C170.887 433.24 171.095 433.16 171.33 433.16C171.565 433.16 171.767 433.24 171.938 433.4C172.119 433.56 172.21 433.757 172.21 433.992C172.21 434.227 172.119 434.424 171.938 434.584C171.767 434.744 171.565 434.824 171.33 434.824C171.095 434.824 170.887 434.744 170.706 434.584C170.525 434.424 170.434 434.227 170.434 433.992ZM181.616 436.376V443.048C181.616 443.656 181.461 444.205 181.152 444.696C180.843 445.187 180.4 445.576 179.824 445.864C179.259 446.152 178.592 446.296 177.824 446.296C177.152 446.296 176.571 446.184 176.08 445.96C175.6 445.736 175.115 445.405 174.624 444.968L175.504 443.944C175.867 444.285 176.229 444.541 176.592 444.712C176.955 444.893 177.355 444.984 177.792 444.984C178.528 444.984 179.093 444.808 179.488 444.456C179.893 444.104 180.101 443.629 180.112 443.032L180.128 441.784C179.883 442.2 179.52 442.536 179.04 442.792C178.571 443.037 178.027 443.16 177.408 443.16C176.8 443.16 176.24 443.005 175.728 442.696C175.216 442.387 174.805 441.965 174.496 441.432C174.197 440.899 174.048 440.307 174.048 439.656C174.048 438.984 174.203 438.381 174.512 437.848C174.832 437.304 175.259 436.877 175.792 436.568C176.325 436.259 176.896 436.104 177.504 436.104C178.069 436.104 178.592 436.216 179.072 436.44C179.552 436.664 179.909 436.952 180.144 437.304L180.256 436.376H181.616ZM177.84 441.928C178.405 441.928 178.896 441.773 179.312 441.464C179.728 441.155 180 440.749 180.128 440.248V438.936C179.979 438.456 179.696 438.072 179.28 437.784C178.864 437.485 178.384 437.336 177.84 437.336C177.189 437.336 176.645 437.549 176.208 437.976C175.771 438.403 175.552 438.947 175.552 439.608C175.552 440.035 175.653 440.424 175.856 440.776C176.059 441.128 176.336 441.411 176.688 441.624C177.04 441.827 177.424 441.928 177.84 441.928ZM188.314 436.12C188.933 436.12 189.445 436.307 189.85 436.68C190.256 437.043 190.464 437.517 190.474 438.104V443H188.97V438.616C188.949 438.243 188.837 437.949 188.634 437.736C188.432 437.523 188.128 437.411 187.722 437.4C187.338 437.4 186.992 437.507 186.682 437.72C186.373 437.933 186.128 438.232 185.946 438.616C185.776 439 185.69 439.427 185.69 439.896V443H184.202V430.6H185.658V437.576C185.904 437.139 186.256 436.787 186.714 436.52C187.184 436.253 187.717 436.12 188.314 436.12ZM195.19 433.464V436.392H196.998V437.576H195.19V443H193.686V437.576H192.47V436.392H193.686V433.464H195.19Z" fill="#555555"/>
<path d="M257.432 400.806V545H428L412.74 529.741M278.29 74.1353C319.917 96.1661 348.269 139.957 348.269 190.339C348.269 248.757 310.165 298.236 257.432 315.301V388.346M125.42 284.512C100.86 260.675 85.5098 227.268 85.5098 190.249C85.5098 117.746 144.292 58.8762 216.89 58.8762C235.039 58.8762 252.285 62.5781 267.997 69.1693M176.347 382.297V315.301C161.087 310.335 147.001 302.66 134.721 292.819M176.347 425.094V407.488M0 545H176.347V450.195M283.889 364.871H149.89L283.889 412.002H149.89L283.889 450.195H149.89M294.002 226.816C283.618 231.692 267.545 242.798 255.987 235.575C250.479 232.144 247.5 223.476 246.506 217.517C245.694 213.092 246.416 206.14 251.292 204.154C256.62 201.987 261.495 206.682 263.301 211.196C266.733 219.774 266.281 233.317 262.218 241.624C258.155 250.111 247.138 251.285 239.283 247.944C230.434 244.062 224.294 235.394 221.224 226.455C218.425 218.239 216.438 205.147 225.919 200.361C231.608 197.472 235.219 204.063 236.664 208.578C239.102 216.162 238.019 224.379 235.761 231.873C234.136 237.38 231.969 243.972 227.093 248.396C217.792 256.793 206.325 251.827 201.268 241.624C196.483 232.053 196.934 220.316 198.56 210.022C199.192 206.321 200.817 200.903 203.977 198.556C213.007 191.784 214.903 211.557 215.264 216.343C216.077 228.171 212.465 243.249 199.192 246.59C190.433 248.757 185.738 243.52 181.223 238.735C175.263 232.505 169.665 218.239 174.541 210.113C176.979 206.14 182.668 203.883 186.099 207.765C189.259 211.286 189.349 217.697 189.079 222.121C188.266 233.046 179.417 244.513 167.679 244.242C159.281 244.062 156.392 237.742 155.489 232.414C154.857 228.622 152.599 207.585 161.719 209.21C171.561 211.016 163.435 224.649 159.552 227.81C155.037 231.421 146.188 236.297 139.777 232.053M108.716 314.579L90.0246 333.269M331.655 304.466L348.45 324.782M375.087 208.849L400.189 217.065M329.849 78.1081L350.346 61.4946M69.6178 140.86L43.4322 137.609M108.716 67.0023L81.0853 39.3734M249.847 39.3734L256.981 1" stroke="#555555" stroke-width="3" stroke-miterlimit="10"/>
</svg>
