<svg width="620" height="376" viewBox="0 0 620 376" fill="none" xmlns="http://www.w3.org/2000/svg">
<path d="M129.856 365L127.066 360.788H125.32V365H122.71V351.752H126.724C128.368 351.752 129.64 352.154 130.54 352.958C131.452 353.75 131.908 354.836 131.908 356.216C131.908 357.032 131.734 357.8 131.386 358.52C131.05 359.228 130.528 359.786 129.82 360.194L132.898 365H129.856ZM125.32 358.268H127.174C127.882 358.268 128.398 358.064 128.722 357.656C129.046 357.236 129.208 356.786 129.208 356.306C129.208 355.826 129.07 355.37 128.794 354.938C128.518 354.494 127.984 354.272 127.192 354.272H125.32V358.268ZM138.208 363.074C138.712 363.074 139.234 362.9 139.774 362.552L140.89 364.424C140.458 364.664 140.002 364.856 139.522 365C139.042 365.144 138.586 365.216 138.154 365.216C137.218 365.216 136.408 365.042 135.724 364.694C135.052 364.334 134.542 363.836 134.194 363.2C133.846 362.552 133.672 361.814 133.672 360.986C133.672 360.218 133.87 359.51 134.266 358.862C134.674 358.214 135.226 357.704 135.922 357.332C136.618 356.948 137.38 356.756 138.208 356.756C139.336 356.756 140.26 357.086 140.98 357.746C141.712 358.406 142.186 359.348 142.402 360.572L136.642 362.408C137.026 362.852 137.548 363.074 138.208 363.074ZM138.01 358.718C137.446 358.718 136.996 358.91 136.66 359.294C136.324 359.678 136.156 360.194 136.156 360.842V361.004L139.612 359.834C139.36 359.09 138.826 358.718 138.01 358.718ZM152.694 357.134V365H150.174V364.028C149.418 364.82 148.542 365.216 147.546 365.216C146.382 365.216 145.434 364.868 144.702 364.172C143.982 363.476 143.622 362.444 143.622 361.076C143.622 360.212 143.796 359.456 144.144 358.808C144.504 358.148 144.978 357.638 145.566 357.278C146.154 356.918 146.784 356.738 147.456 356.738C148.152 356.738 148.704 356.846 149.112 357.062C149.52 357.266 149.88 357.56 150.192 357.944L150.354 357.134H152.694ZM148.266 363.164C149.142 363.164 149.778 362.768 150.174 361.976V360.05C150.03 359.666 149.778 359.36 149.418 359.132C149.07 358.904 148.656 358.79 148.176 358.79C147.624 358.79 147.15 358.994 146.754 359.402C146.37 359.81 146.178 360.326 146.178 360.95C146.178 361.358 146.274 361.736 146.466 362.084C146.658 362.42 146.91 362.684 147.222 362.876C147.546 363.068 147.894 363.164 148.266 363.164ZM157.81 350.798V365H155.29V350.798H157.81Z" fill="#555555"/>
<path d="M475.672 351.752L469.624 365.612L463.576 351.752H466.708L469.732 359.222L472.576 351.752H475.672ZM480.07 357.134V365H477.55V357.134H480.07ZM477.496 354.344C477.496 353.984 477.634 353.684 477.91 353.444C478.198 353.192 478.522 353.066 478.882 353.066C479.23 353.066 479.542 353.192 479.818 353.444C480.094 353.684 480.232 353.984 480.232 354.344C480.232 354.704 480.094 355.004 479.818 355.244C479.542 355.484 479.23 355.604 478.882 355.604C478.522 355.604 478.198 355.484 477.91 355.244C477.634 355.004 477.496 354.704 477.496 354.344ZM485.131 358.934C485.347 358.514 485.641 358.136 486.013 357.8C486.397 357.464 486.787 357.206 487.183 357.026C487.579 356.834 487.891 356.738 488.119 356.738L487.993 359.258C487.921 359.246 487.819 359.24 487.687 359.24C487.183 359.24 486.739 359.372 486.355 359.636C485.971 359.9 485.677 360.242 485.473 360.662C485.269 361.07 485.167 361.49 485.167 361.922V365H482.665V357.134H484.933L485.131 358.934ZM493.306 353.678V357.098H495.214V359.06H493.306V365H490.786V359.06H489.562V357.098H490.786V353.678H493.306ZM505.052 357.134V365H502.766L502.586 363.74C502.31 364.244 501.92 364.646 501.416 364.946C500.924 365.234 500.342 365.378 499.67 365.378C498.95 365.378 498.35 365.156 497.87 364.712C497.39 364.268 497.144 363.704 497.132 363.02V357.134H499.652V362.084C499.688 362.852 500.042 363.236 500.714 363.236C501.266 363.236 501.704 362.966 502.028 362.426C502.364 361.886 502.532 361.19 502.532 360.338V357.134H505.052ZM516.104 357.134V365H513.584V364.028C512.828 364.82 511.952 365.216 510.956 365.216C509.792 365.216 508.844 364.868 508.112 364.172C507.392 363.476 507.032 362.444 507.032 361.076C507.032 360.212 507.206 359.456 507.554 358.808C507.914 358.148 508.388 357.638 508.976 357.278C509.564 356.918 510.194 356.738 510.866 356.738C511.562 356.738 512.114 356.846 512.522 357.062C512.93 357.266 513.29 357.56 513.602 357.944L513.764 357.134H516.104ZM511.676 363.164C512.552 363.164 513.188 362.768 513.584 361.976V360.05C513.44 359.666 513.188 359.36 512.828 359.132C512.48 358.904 512.066 358.79 511.586 358.79C511.034 358.79 510.56 358.994 510.164 359.402C509.78 359.81 509.588 360.326 509.588 360.95C509.588 361.358 509.684 361.736 509.876 362.084C510.068 362.42 510.32 362.684 510.632 362.876C510.956 363.068 511.304 363.164 511.676 363.164ZM521.22 350.798V365H518.7V350.798H521.22Z" fill="#555555"/>
<path d="M321.784 10.956C320.632 10.32 319.63 10.002 318.778 10.002C318.202 10.002 317.752 10.116 317.428 10.344C317.116 10.572 316.96 10.914 316.96 11.37C316.96 11.79 317.188 12.162 317.644 12.486C318.112 12.798 318.73 13.098 319.498 13.386C320.122 13.614 320.656 13.878 321.1 14.178C321.544 14.466 321.91 14.868 322.198 15.384C322.498 15.9 322.648 16.554 322.648 17.346C322.648 18.03 322.468 18.666 322.108 19.254C321.76 19.83 321.244 20.292 320.56 20.64C319.876 20.976 319.06 21.144 318.112 21.144C317.32 21.144 316.534 21.03 315.754 20.802C314.974 20.562 314.248 20.202 313.576 19.722L314.728 17.688C315.184 18.024 315.706 18.3 316.294 18.516C316.882 18.732 317.41 18.84 317.878 18.84C318.43 18.84 318.91 18.726 319.318 18.498C319.726 18.258 319.93 17.874 319.93 17.346C319.93 16.662 319.288 16.068 318.004 15.564C317.248 15.264 316.618 14.976 316.114 14.7C315.61 14.424 315.172 14.028 314.8 13.512C314.44 12.996 314.26 12.348 314.26 11.568C314.26 10.428 314.632 9.51 315.376 8.814C316.132 8.118 317.134 7.74 318.382 7.68C319.366 7.68 320.188 7.794 320.848 8.022C321.508 8.238 322.15 8.55 322.774 8.958L321.784 10.956ZM324.178 16.968C324.178 16.164 324.364 15.444 324.736 14.808C325.12 14.172 325.654 13.674 326.338 13.314C327.034 12.942 327.82 12.756 328.696 12.756C329.572 12.756 330.34 12.942 331 13.314C331.672 13.674 332.188 14.172 332.548 14.808C332.908 15.444 333.088 16.164 333.088 16.968C333.088 17.772 332.908 18.498 332.548 19.146C332.188 19.794 331.672 20.304 331 20.676C330.34 21.036 329.56 21.216 328.66 21.216C327.784 21.216 327.004 21.048 326.32 20.712C325.648 20.364 325.12 19.872 324.736 19.236C324.364 18.6 324.178 17.844 324.178 16.968ZM326.716 16.986C326.716 17.61 326.896 18.132 327.256 18.552C327.616 18.96 328.072 19.164 328.624 19.164C329.2 19.164 329.662 18.96 330.01 18.552C330.37 18.144 330.55 17.622 330.55 16.986C330.55 16.35 330.37 15.828 330.01 15.42C329.662 15.012 329.2 14.808 328.624 14.808C328.072 14.808 327.616 15.018 327.256 15.438C326.896 15.846 326.716 16.362 326.716 16.986ZM337.593 6.798V21H335.073V6.798H337.593ZM348.109 13.134V21H345.823L345.643 19.74C345.367 20.244 344.977 20.646 344.473 20.946C343.981 21.234 343.399 21.378 342.727 21.378C342.007 21.378 341.407 21.156 340.927 20.712C340.447 20.268 340.201 19.704 340.189 19.02V13.134H342.709V18.084C342.745 18.852 343.099 19.236 343.771 19.236C344.323 19.236 344.761 18.966 345.085 18.426C345.421 17.886 345.589 17.19 345.589 16.338V13.134H348.109ZM353.958 9.678V13.098H355.866V15.06H353.958V21H351.438V15.06H350.214V13.098H351.438V9.678H353.958ZM360.304 13.134V21H357.784V13.134H360.304ZM357.73 10.344C357.73 9.984 357.868 9.684 358.144 9.444C358.432 9.192 358.756 9.066 359.116 9.066C359.464 9.066 359.776 9.192 360.052 9.444C360.328 9.684 360.466 9.984 360.466 10.344C360.466 10.704 360.328 11.004 360.052 11.244C359.776 11.484 359.464 11.604 359.116 11.604C358.756 11.604 358.432 11.484 358.144 11.244C357.868 11.004 357.73 10.704 357.73 10.344ZM362.288 16.968C362.288 16.164 362.474 15.444 362.846 14.808C363.23 14.172 363.764 13.674 364.448 13.314C365.144 12.942 365.93 12.756 366.806 12.756C367.682 12.756 368.45 12.942 369.11 13.314C369.782 13.674 370.298 14.172 370.658 14.808C371.018 15.444 371.198 16.164 371.198 16.968C371.198 17.772 371.018 18.498 370.658 19.146C370.298 19.794 369.782 20.304 369.11 20.676C368.45 21.036 367.67 21.216 366.77 21.216C365.894 21.216 365.114 21.048 364.43 20.712C363.758 20.364 363.23 19.872 362.846 19.236C362.474 18.6 362.288 17.844 362.288 16.968ZM364.826 16.986C364.826 17.61 365.006 18.132 365.366 18.552C365.726 18.96 366.182 19.164 366.734 19.164C367.31 19.164 367.772 18.96 368.12 18.552C368.48 18.144 368.66 17.622 368.66 16.986C368.66 16.35 368.48 15.828 368.12 15.42C367.772 15.012 367.31 14.808 366.734 14.808C366.182 14.808 365.726 15.018 365.366 15.438C365.006 15.846 364.826 16.362 364.826 16.986ZM378.655 12.756C379.399 12.756 380.017 12.978 380.509 13.422C381.013 13.866 381.271 14.43 381.283 15.114V21H378.763V16.05C378.727 15.282 378.343 14.898 377.611 14.898C377.035 14.898 376.573 15.168 376.225 15.708C375.877 16.248 375.703 16.944 375.703 17.796V21H373.183V13.134H375.469L375.649 14.394C375.937 13.878 376.333 13.476 376.837 13.188C377.353 12.9 377.959 12.756 378.655 12.756Z" fill="#555555"/>
<path d="M346.101 30V65.6445M94.0645 51.7902H60.7817V65.6445M473.73 51.7902H103.727M514.394 65.6445V51.7902H482.051M531.304 210.509H491.579C486.345 210.509 482.185 206.205 482.185 201.094V115.412C482.185 110.167 486.479 105.997 491.579 105.997H499.229M506.073 105.862H537.343C542.577 105.862 546.737 110.167 546.737 115.278V200.959C546.737 206.205 542.443 210.375 537.343 210.375H534.256M522.446 189.813H493.995C491.445 189.813 489.432 187.795 489.432 185.239V123.945C489.432 121.389 491.445 119.371 493.995 119.371H524.325M530.633 119.371H534.927C537.477 119.371 539.49 121.389 539.49 123.945V185.374C539.49 187.93 537.477 189.947 534.927 189.947H524.996M511.173 196.538C511.978 195.866 513.186 195.327 514.394 195.327C517.078 195.327 519.225 197.48 519.225 200.17C519.225 202.86 517.078 205.012 514.394 205.012C511.71 205.012 509.563 202.86 509.563 200.17C509.563 199.228 509.831 198.287 510.368 197.614M509.831 114.471H508.489C507.415 114.471 506.476 113.529 506.476 112.453C506.476 111.377 507.415 110.436 508.489 110.436H520.299C521.373 110.436 522.312 111.377 522.312 112.453C522.312 113.529 521.373 114.471 520.299 114.471H513.32M306.913 103.979H399.917C407.433 103.979 413.606 110.167 413.606 117.699V182.935C413.606 190.468 407.433 196.655 399.917 196.655H292.285C284.77 196.655 278.596 190.468 278.596 182.935V117.699C278.596 110.167 284.77 103.979 292.285 103.979H301.814M382.873 114.605H399.783V172.982H324.628M321.139 172.982H292.285V114.605H375.492M358.045 182.801H278.462M413.606 182.801H361.4M350.396 215.217H318.186M373.882 215.217H355.093M359.79 196.789V215.217M332.278 196.789V215.217M608.471 241.042C609.948 241.311 611.156 241.984 612.229 242.926C612.498 243.06 612.632 243.06 612.9 243.06C614.108 242.791 615.316 242.253 616.524 241.715C616.658 241.715 616.792 241.446 616.926 241.58C617.061 241.715 616.926 241.849 616.926 241.984C616.658 242.657 616.255 243.195 615.853 243.733C615.45 244.271 614.779 244.674 614.242 245.212C615.584 245.078 616.792 244.674 618 244.271C617.195 245.616 616.121 246.692 614.913 247.499C614.645 247.768 614.511 248.037 614.511 248.44C614.511 249.247 614.511 249.92 614.376 250.727C613.705 256.376 611.29 261.219 606.861 264.716C601.359 269.155 595.051 270.096 588.207 268.482C586.193 267.944 584.315 267.137 582.57 266.061C582.57 266.061 582.57 266.061 582.57 265.926C586.462 266.33 589.951 265.388 593.172 263.102C593.038 262.967 592.904 262.967 592.77 262.967C591.964 262.833 591.293 262.698 590.622 262.429C588.878 261.622 587.536 260.277 586.865 258.528C586.73 258.259 586.73 258.125 587.133 258.125C587.67 258.125 588.207 258.125 588.743 258.125C589.012 258.125 589.28 257.99 589.549 257.99C589.549 257.856 589.414 257.856 589.28 257.856C587.938 257.452 586.864 256.78 585.925 255.704C584.851 254.493 584.18 253.014 584.046 251.265C584.046 250.861 584.18 250.727 584.449 250.996C584.851 251.131 585.254 251.265 585.657 251.4C586.059 251.534 586.462 251.669 586.999 251.534C586.999 251.4 586.864 251.265 586.73 251.265C584.18 249.247 583.375 245.481 584.851 242.522C585.12 242.118 585.12 242.118 585.522 242.387C586.193 243.06 586.864 243.733 587.536 244.405C591.025 247.364 594.917 249.113 599.48 249.516C600.017 249.516 600.151 249.516 600.017 248.978C599.748 246.019 600.688 243.733 603.103 241.984C604.043 241.311 605.116 241.042 606.19 240.773M119.027 196.789L210.017 234.183M84.9386 182.666L112.987 194.234M185.458 108.014L84.9386 149.443M210.017 97.9263L192.437 105.19M134.863 151.326L119.698 155.899M181.029 137.203L140.902 149.443M12.8706 145.811H57.9634V186.701H2V145.811H9.51547M68.2972 163.297C68.6998 164.239 68.834 165.18 68.834 166.256C68.834 170.56 65.3447 174.058 61.0501 174.058H57.9634V158.455H61.0501C63.0632 158.455 64.942 159.262 66.2841 160.472M32.5987 166.256H16.3599M43.7377 166.256H35.1486M30.0488 90.3939V93.7566M30.0488 100.751V139.086M30.0488 142.448V145.811M52.461 65.6445L60.7817 73.984L69.1024 65.779M337.78 65.6445L346.101 73.984L354.288 65.779M564.184 268.213L572.639 259.873L564.318 251.534M564.184 323.765L572.639 315.291L564.318 307.086M180.627 279.646L172.306 288.12L180.492 296.325M506.073 65.6445L514.528 73.984L522.715 65.779M441.789 366L450.244 357.526L441.923 349.321M180.627 349.321L172.306 357.661L180.492 366M137.144 250.054C132.447 250.054 128.689 253.821 128.689 258.528C128.689 262.16 130.971 265.254 134.058 266.464C133.655 270.769 132.715 275.207 131.508 279.646M135.4 294.711C138.084 294.98 140.231 305.606 140.768 307.355C141.573 310.448 143.318 318.519 147.612 318.519C150.699 318.519 152.309 316.098 150.43 314.215C146.673 310.448 145.331 301.974 144.391 296.998C142.915 289.465 142.512 281.664 141.841 273.997C141.573 271.576 141.707 268.751 141.439 266.061C143.989 264.581 145.733 261.891 145.733 258.663C145.733 255.3 143.72 252.341 140.902 250.996M130.166 284.354C129.36 286.775 128.689 289.331 127.884 291.617C127.079 294.038 119.966 317.981 124.663 318.519C127.079 318.788 128.958 318.788 128.689 316.367C128.421 314.215 130.837 302.512 133.118 297.267M105.203 290.676C104.532 285.161 104.13 279.512 103.727 273.997C103.459 271.576 103.593 268.751 103.325 266.061C105.875 264.581 107.619 261.891 107.619 258.663C107.619 253.955 103.861 250.189 99.1643 250.189C96.6144 250.189 94.3329 251.265 92.7224 253.148M92.0514 306.682C93.2593 301.84 94.7355 296.729 96.0776 295.249C99.1643 291.752 101.983 305.337 102.519 307.355C103.325 310.448 105.069 318.519 109.364 318.519C112.451 318.519 114.061 316.098 112.182 314.215C108.424 310.448 107.082 301.974 106.143 296.998M90.9778 255.973C90.7094 256.78 90.5752 257.587 90.5752 258.528C90.5752 262.16 92.8566 265.254 95.9434 266.464C95.2723 274.804 92.1856 283.816 89.7699 291.483C88.9647 293.904 81.8519 317.846 86.549 318.384C88.9647 318.653 90.8436 318.653 90.5752 316.232C90.441 315.56 90.7094 313.946 90.9778 311.928M64.271 252.745C62.6606 251.131 60.5133 250.054 58.0976 250.054C53.4004 250.054 49.6427 253.821 49.6427 258.528C49.6427 262.16 51.9242 265.254 55.0109 266.464C54.6083 271.71 53.2662 277.09 51.79 282.202M49.9111 287.986C49.5085 289.196 49.1059 290.407 48.8375 291.483C48.0322 293.904 40.9194 317.846 45.6166 318.384C48.0322 318.653 49.9111 318.653 49.6427 316.232C49.3743 313.811 52.7294 297.939 55.1451 295.115C58.2318 291.617 61.0501 305.203 61.5869 307.22C62.3922 310.314 64.1368 318.384 68.4314 318.384C71.5181 318.384 73.1285 315.963 71.2497 314.08C67.4919 310.314 66.1499 301.84 65.2105 296.863C63.7342 289.331 63.3316 281.529 62.6606 273.862C62.3922 271.441 62.5264 268.616 62.258 265.926C64.8078 264.447 66.5525 261.757 66.5525 258.528C66.5525 257.99 66.5525 257.452 66.4183 257.049M393.61 357.661H181.298M440.581 357.661H406.359M594.917 319.595C594.917 317.443 594.917 315.425 594.917 313.273C594.917 312.735 594.917 312.735 594.38 312.735C593.441 312.735 592.367 312.735 591.427 312.735C591.427 310.583 591.427 308.431 591.427 306.279C592.233 306.279 593.038 306.279 593.843 306.279C595.051 306.279 594.917 306.413 594.917 305.203C594.917 303.588 594.783 302.109 595.051 300.495C595.588 297.939 596.93 295.922 599.48 294.98C600.017 294.711 600.688 294.711 601.359 294.576C603.64 294.576 605.922 294.576 608.203 294.576C608.203 294.711 608.203 294.845 608.203 294.98C608.203 296.729 608.203 298.477 608.203 300.226C608.203 300.764 608.203 300.764 607.666 300.764C606.593 300.764 605.519 300.764 604.445 300.764C603.237 300.764 602.701 301.302 602.701 302.512C602.701 303.588 602.701 304.664 602.701 305.606C602.701 306.01 602.835 306.144 603.237 306.144C604.714 306.144 606.19 306.144 607.666 306.144C608.337 306.144 608.337 306.144 608.337 306.817C608.203 308.565 607.935 310.314 607.8 312.062C607.8 312.6 607.8 312.6 607.129 312.6C605.922 312.6 604.714 312.6 603.506 312.6C602.701 312.6 602.701 312.6 602.701 313.408C602.701 318.922 602.701 324.437 602.701 329.952C602.701 330.625 602.701 330.624 602.03 330.624C600.017 330.624 597.869 330.624 595.856 330.624C595.185 330.624 595.185 330.625 595.185 329.952C595.185 327.665 595.185 325.244 595.185 322.958M542.577 315.425H564.184M514.394 237.007V315.425H531.304M564.184 259.873H514.394M295.372 287.986H181.298M514.394 287.986H306.511" stroke="#555555" stroke-width="3" stroke-miterlimit="10" stroke-linejoin="round"/>
</svg>
