<svg width="616" height="405" viewBox="0 0 616 405" fill="none" xmlns="http://www.w3.org/2000/svg">
<path d="M532.856 21L530.066 16.788H528.32V21H525.71V7.752H529.724C531.368 7.752 532.64 8.154 533.54 8.958C534.452 9.75 534.908 10.836 534.908 12.216C534.908 13.032 534.734 13.8 534.386 14.52C534.05 15.228 533.528 15.786 532.82 16.194L535.898 21H532.856ZM528.32 14.268H530.174C530.882 14.268 531.398 14.064 531.722 13.656C532.046 13.236 532.208 12.786 532.208 12.306C532.208 11.826 532.07 11.37 531.794 10.938C531.518 10.494 530.984 10.272 530.192 10.272H528.32V14.268ZM541.208 19.074C541.712 19.074 542.234 18.9 542.774 18.552L543.89 20.424C543.458 20.664 543.002 20.856 542.522 21C542.042 21.144 541.586 21.216 541.154 21.216C540.218 21.216 539.408 21.042 538.724 20.694C538.052 20.334 537.542 19.836 537.194 19.2C536.846 18.552 536.672 17.814 536.672 16.986C536.672 16.218 536.87 15.51 537.266 14.862C537.674 14.214 538.226 13.704 538.922 13.332C539.618 12.948 540.38 12.756 541.208 12.756C542.336 12.756 543.26 13.086 543.98 13.746C544.712 14.406 545.186 15.348 545.402 16.572L539.642 18.408C540.026 18.852 540.548 19.074 541.208 19.074ZM541.01 14.718C540.446 14.718 539.996 14.91 539.66 15.294C539.324 15.678 539.156 16.194 539.156 16.842V17.004L542.612 15.834C542.36 15.09 541.826 14.718 541.01 14.718ZM549.79 21.162C549.142 21.162 548.536 21.048 547.972 20.82C547.408 20.592 546.939 20.274 546.568 19.866L547.612 18.48C548.308 19.128 548.962 19.452 549.574 19.452C549.898 19.452 550.156 19.404 550.348 19.308C550.552 19.2 550.654 19.044 550.654 18.84C550.654 18.6 550.54 18.42 550.312 18.3C550.084 18.168 549.826 18.06 549.538 17.976C549.262 17.892 549.076 17.838 548.98 17.814C548.296 17.598 547.786 17.28 547.45 16.86C547.114 16.428 546.946 15.936 546.946 15.384C546.946 14.964 547.054 14.556 547.27 14.16C547.498 13.752 547.846 13.422 548.313 13.17C548.782 12.906 549.364 12.774 550.06 12.774C550.708 12.774 551.26 12.84 551.716 12.972C552.172 13.104 552.61 13.32 553.03 13.62L552.076 15.096C551.836 14.904 551.566 14.748 551.266 14.628C550.978 14.496 550.714 14.43 550.474 14.43C550.186 14.43 549.952 14.49 549.772 14.61C549.592 14.73 549.502 14.874 549.502 15.042C549.49 15.294 549.592 15.486 549.808 15.618C550.036 15.738 550.384 15.864 550.852 15.996C550.924 16.02 550.996 16.044 551.068 16.068C551.152 16.092 551.236 16.116 551.32 16.14C552.556 16.548 553.174 17.292 553.174 18.372C553.174 18.876 553.048 19.338 552.796 19.758C552.544 20.178 552.16 20.52 551.644 20.784C551.14 21.036 550.522 21.162 549.79 21.162ZM559.208 19.074C559.712 19.074 560.234 18.9 560.774 18.552L561.89 20.424C561.458 20.664 561.002 20.856 560.522 21C560.042 21.144 559.586 21.216 559.154 21.216C558.218 21.216 557.408 21.042 556.724 20.694C556.052 20.334 555.542 19.836 555.194 19.2C554.846 18.552 554.672 17.814 554.672 16.986C554.672 16.218 554.87 15.51 555.266 14.862C555.674 14.214 556.226 13.704 556.922 13.332C557.618 12.948 558.38 12.756 559.208 12.756C560.336 12.756 561.26 13.086 561.98 13.746C562.712 14.406 563.186 15.348 563.402 16.572L557.642 18.408C558.026 18.852 558.548 19.074 559.208 19.074ZM559.01 14.718C558.446 14.718 557.996 14.91 557.66 15.294C557.324 15.678 557.156 16.194 557.156 16.842V17.004L560.612 15.834C560.36 15.09 559.826 14.718 559.01 14.718ZM573.694 13.134V21H571.174V20.028C570.418 20.82 569.542 21.216 568.546 21.216C567.382 21.216 566.434 20.868 565.702 20.172C564.982 19.476 564.622 18.444 564.622 17.076C564.622 16.212 564.796 15.456 565.144 14.808C565.504 14.148 565.978 13.638 566.566 13.278C567.154 12.918 567.784 12.738 568.456 12.738C569.152 12.738 569.704 12.846 570.112 13.062C570.52 13.266 570.88 13.56 571.192 13.944L571.354 13.134H573.694ZM569.266 19.164C570.142 19.164 570.778 18.768 571.174 17.976V16.05C571.03 15.666 570.778 15.36 570.418 15.132C570.07 14.904 569.656 14.79 569.176 14.79C568.624 14.79 568.15 14.994 567.754 15.402C567.37 15.81 567.178 16.326 567.178 16.95C567.178 17.358 567.274 17.736 567.466 18.084C567.658 18.42 567.91 18.684 568.222 18.876C568.546 19.068 568.894 19.164 569.266 19.164ZM578.756 14.934C578.972 14.514 579.266 14.136 579.638 13.8C580.022 13.464 580.412 13.206 580.808 13.026C581.204 12.834 581.516 12.738 581.744 12.738L581.618 15.258C581.546 15.246 581.444 15.24 581.312 15.24C580.808 15.24 580.364 15.372 579.98 15.636C579.596 15.9 579.302 16.242 579.098 16.662C578.894 17.07 578.792 17.49 578.792 17.922V21H576.29V13.134H578.558L578.756 14.934ZM589.999 20.298C589.651 20.574 589.213 20.796 588.685 20.964C588.169 21.132 587.659 21.216 587.155 21.216C585.787 21.216 584.701 20.85 583.897 20.118C583.105 19.374 582.709 18.354 582.709 17.058C582.709 16.218 582.901 15.486 583.285 14.862C583.681 14.226 584.197 13.746 584.833 13.422C585.469 13.086 586.153 12.918 586.885 12.918C588.193 12.918 589.255 13.266 590.071 13.962L588.847 15.582C588.331 15.174 587.755 14.97 587.119 14.97C586.591 14.97 586.141 15.168 585.769 15.564C585.409 15.96 585.229 16.458 585.229 17.058C585.229 17.658 585.427 18.162 585.823 18.57C586.219 18.966 586.735 19.164 587.371 19.164C587.923 19.164 588.379 19.014 588.739 18.714L589.999 20.298ZM597.407 12.756C598.151 12.756 598.769 12.978 599.261 13.422C599.765 13.866 600.023 14.43 600.035 15.114V21H597.515V16.05C597.479 15.282 597.095 14.898 596.363 14.898C595.787 14.898 595.325 15.168 594.977 15.708C594.629 16.248 594.455 16.944 594.455 17.796V21H591.935V6.798H594.401V14.376C594.689 13.872 595.085 13.476 595.589 13.188C596.105 12.9 596.711 12.756 597.407 12.756Z" fill="#555555"/>
<path d="M27.856 200L25.066 195.788H23.32V200H20.71V186.752H24.724C26.368 186.752 27.64 187.154 28.54 187.958C29.452 188.75 29.908 189.836 29.908 191.216C29.908 192.032 29.734 192.8 29.386 193.52C29.05 194.228 28.528 194.786 27.82 195.194L30.898 200H27.856ZM23.32 193.268H25.174C25.882 193.268 26.398 193.064 26.722 192.656C27.046 192.236 27.208 191.786 27.208 191.306C27.208 190.826 27.07 190.37 26.794 189.938C26.518 189.494 25.984 189.272 25.192 189.272H23.32V193.268ZM36.2083 198.074C36.7123 198.074 37.2343 197.9 37.7743 197.552L38.8903 199.424C38.4583 199.664 38.0023 199.856 37.5223 200C37.0423 200.144 36.5863 200.216 36.1543 200.216C35.2183 200.216 34.4083 200.042 33.7243 199.694C33.0523 199.334 32.5423 198.836 32.1943 198.2C31.8463 197.552 31.6723 196.814 31.6723 195.986C31.6723 195.218 31.8703 194.51 32.2663 193.862C32.6743 193.214 33.2263 192.704 33.9223 192.332C34.6183 191.948 35.3803 191.756 36.2083 191.756C37.3363 191.756 38.2603 192.086 38.9803 192.746C39.7123 193.406 40.1863 194.348 40.4023 195.572L34.6423 197.408C35.0263 197.852 35.5483 198.074 36.2083 198.074ZM36.0103 193.718C35.4463 193.718 34.9963 193.91 34.6603 194.294C34.3243 194.678 34.1563 195.194 34.1563 195.842V196.004L37.6123 194.834C37.3603 194.09 36.8263 193.718 36.0103 193.718ZM44.7895 200.162C44.1415 200.162 43.5355 200.048 42.9715 199.82C42.4075 199.592 41.9395 199.274 41.5675 198.866L42.6115 197.48C43.3075 198.128 43.9615 198.452 44.5735 198.452C44.8975 198.452 45.1555 198.404 45.3475 198.308C45.5515 198.2 45.6535 198.044 45.6535 197.84C45.6535 197.6 45.5395 197.42 45.3115 197.3C45.0835 197.168 44.8255 197.06 44.5375 196.976C44.2615 196.892 44.0755 196.838 43.9795 196.814C43.2955 196.598 42.7855 196.28 42.4495 195.86C42.1135 195.428 41.9455 194.936 41.9455 194.384C41.9455 193.964 42.0535 193.556 42.2695 193.16C42.4975 192.752 42.8455 192.422 43.3135 192.17C43.7815 191.906 44.3635 191.774 45.0595 191.774C45.7075 191.774 46.2595 191.84 46.7155 191.972C47.1715 192.104 47.6095 192.32 48.0295 192.62L47.0755 194.096C46.8355 193.904 46.5655 193.748 46.2655 193.628C45.9775 193.496 45.7135 193.43 45.4735 193.43C45.1855 193.43 44.9515 193.49 44.7715 193.61C44.5915 193.73 44.5015 193.874 44.5015 194.042C44.4895 194.294 44.5915 194.486 44.8075 194.618C45.0355 194.738 45.3835 194.864 45.8515 194.996C45.9235 195.02 45.9955 195.044 46.0675 195.068C46.1515 195.092 46.2355 195.116 46.3195 195.14C47.5555 195.548 48.1735 196.292 48.1735 197.372C48.1735 197.876 48.0475 198.338 47.7955 198.758C47.5435 199.178 47.1595 199.52 46.6435 199.784C46.1395 200.036 45.5215 200.162 44.7895 200.162ZM54.2083 198.074C54.7123 198.074 55.2343 197.9 55.7743 197.552L56.8903 199.424C56.4583 199.664 56.0023 199.856 55.5223 200C55.0423 200.144 54.5863 200.216 54.1543 200.216C53.2183 200.216 52.4083 200.042 51.7243 199.694C51.0523 199.334 50.5423 198.836 50.1943 198.2C49.8463 197.552 49.6723 196.814 49.6723 195.986C49.6723 195.218 49.8703 194.51 50.2663 193.862C50.6743 193.214 51.2263 192.704 51.9223 192.332C52.6183 191.948 53.3803 191.756 54.2083 191.756C55.3363 191.756 56.2603 192.086 56.9803 192.746C57.7123 193.406 58.1863 194.348 58.4023 195.572L52.6423 197.408C53.0263 197.852 53.5483 198.074 54.2083 198.074ZM54.0103 193.718C53.4463 193.718 52.9963 193.91 52.6603 194.294C52.3243 194.678 52.1563 195.194 52.1563 195.842V196.004L55.6123 194.834C55.3603 194.09 54.8263 193.718 54.0103 193.718ZM68.6935 192.134V200H66.1735V199.028C65.4175 199.82 64.5415 200.216 63.5455 200.216C62.3815 200.216 61.4335 199.868 60.7015 199.172C59.9815 198.476 59.6215 197.444 59.6215 196.076C59.6215 195.212 59.7955 194.456 60.1435 193.808C60.5035 193.148 60.9775 192.638 61.5655 192.278C62.1535 191.918 62.7835 191.738 63.4555 191.738C64.1515 191.738 64.7035 191.846 65.1115 192.062C65.5195 192.266 65.8795 192.56 66.1915 192.944L66.3535 192.134H68.6935ZM64.2655 198.164C65.1415 198.164 65.7775 197.768 66.1735 196.976V195.05C66.0295 194.666 65.7775 194.36 65.4175 194.132C65.0695 193.904 64.6555 193.79 64.1755 193.79C63.6235 193.79 63.1495 193.994 62.7535 194.402C62.3695 194.81 62.1775 195.326 62.1775 195.95C62.1775 196.358 62.2735 196.736 62.4655 197.084C62.6575 197.42 62.9095 197.684 63.2215 197.876C63.5455 198.068 63.8935 198.164 64.2655 198.164ZM73.7561 193.934C73.9721 193.514 74.2661 193.136 74.6381 192.8C75.0221 192.464 75.4121 192.206 75.8081 192.026C76.2041 191.834 76.5161 191.738 76.7441 191.738L76.6181 194.258C76.5461 194.246 76.4441 194.24 76.3121 194.24C75.8081 194.24 75.3641 194.372 74.9801 194.636C74.5961 194.9 74.3021 195.242 74.0981 195.662C73.8941 196.07 73.7921 196.49 73.7921 196.922V200H71.2901V192.134H73.5581L73.7561 193.934ZM84.9994 199.298C84.6514 199.574 84.2134 199.796 83.6854 199.964C83.1694 200.132 82.6594 200.216 82.1554 200.216C80.7874 200.216 79.7014 199.85 78.8974 199.118C78.1054 198.374 77.7094 197.354 77.7094 196.058C77.7094 195.218 77.9014 194.486 78.2854 193.862C78.6814 193.226 79.1974 192.746 79.8334 192.422C80.4694 192.086 81.1534 191.918 81.8854 191.918C83.1934 191.918 84.2554 192.266 85.0714 192.962L83.8474 194.582C83.3314 194.174 82.7554 193.97 82.1194 193.97C81.5914 193.97 81.1414 194.168 80.7694 194.564C80.4094 194.96 80.2294 195.458 80.2294 196.058C80.2294 196.658 80.4274 197.162 80.8234 197.57C81.2194 197.966 81.7354 198.164 82.3714 198.164C82.9234 198.164 83.3794 198.014 83.7394 197.714L84.9994 199.298ZM92.4067 191.756C93.1507 191.756 93.7687 191.978 94.2607 192.422C94.7647 192.866 95.0227 193.43 95.0347 194.114V200H92.5147V195.05C92.4787 194.282 92.0947 193.898 91.3627 193.898C90.7867 193.898 90.3247 194.168 89.9767 194.708C89.6287 195.248 89.4547 195.944 89.4547 196.796V200H86.9347V185.798H89.4007V193.376C89.6887 192.872 90.0847 192.476 90.5887 192.188C91.1047 191.9 91.7107 191.756 92.4067 191.756Z" fill="#555555"/>
<path d="M273.32 115.752V129H270.71V115.752H273.32ZM281.797 120.756C282.541 120.756 283.159 120.978 283.651 121.422C284.155 121.866 284.413 122.43 284.425 123.114V129H281.905V124.05C281.869 123.282 281.485 122.898 280.753 122.898C280.177 122.898 279.715 123.168 279.367 123.708C279.019 124.248 278.845 124.944 278.845 125.796V129H276.325V121.134H278.611L278.791 122.394C279.079 121.878 279.475 121.476 279.979 121.188C280.495 120.9 281.101 120.756 281.797 120.756ZM289.569 129.162C288.921 129.162 288.315 129.048 287.751 128.82C287.187 128.592 286.719 128.274 286.347 127.866L287.391 126.48C288.087 127.128 288.741 127.452 289.353 127.452C289.677 127.452 289.935 127.404 290.127 127.308C290.331 127.2 290.433 127.044 290.433 126.84C290.433 126.6 290.319 126.42 290.091 126.3C289.863 126.168 289.605 126.06 289.317 125.976C289.041 125.892 288.855 125.838 288.759 125.814C288.075 125.598 287.565 125.28 287.229 124.86C286.893 124.428 286.725 123.936 286.725 123.384C286.725 122.964 286.833 122.556 287.049 122.16C287.277 121.752 287.625 121.422 288.093 121.17C288.561 120.906 289.143 120.774 289.839 120.774C290.487 120.774 291.039 120.84 291.495 120.972C291.951 121.104 292.389 121.32 292.809 121.62L291.855 123.096C291.615 122.904 291.345 122.748 291.045 122.628C290.757 122.496 290.493 122.43 290.253 122.43C289.965 122.43 289.731 122.49 289.551 122.61C289.371 122.73 289.281 122.874 289.281 123.042C289.269 123.294 289.371 123.486 289.587 123.618C289.815 123.738 290.163 123.864 290.631 123.996C290.703 124.02 290.775 124.044 290.847 124.068C290.931 124.092 291.015 124.116 291.099 124.14C292.335 124.548 292.953 125.292 292.953 126.372C292.953 126.876 292.827 127.338 292.575 127.758C292.323 128.178 291.939 128.52 291.423 128.784C290.919 129.036 290.301 129.162 289.569 129.162ZM297.584 121.134V129H295.064V121.134H297.584ZM295.01 118.344C295.01 117.984 295.148 117.684 295.424 117.444C295.712 117.192 296.036 117.066 296.396 117.066C296.744 117.066 297.056 117.192 297.332 117.444C297.608 117.684 297.746 117.984 297.746 118.344C297.746 118.704 297.608 119.004 297.332 119.244C297.056 119.484 296.744 119.604 296.396 119.604C296.036 119.604 295.712 119.484 295.424 119.244C295.148 119.004 295.01 118.704 295.01 118.344ZM308.981 121.134V129C308.981 129.744 308.765 130.416 308.333 131.016C307.913 131.628 307.337 132.102 306.605 132.438C305.885 132.786 305.099 132.96 304.247 132.96C303.599 132.96 303.029 132.882 302.537 132.726C302.057 132.57 301.667 132.396 301.367 132.204C301.079 132.012 300.731 131.748 300.323 131.412L301.799 129.684C302.159 130.02 302.513 130.284 302.861 130.476C303.221 130.668 303.671 130.764 304.211 130.764C304.847 130.764 305.381 130.602 305.813 130.278C306.245 129.966 306.461 129.528 306.461 128.964V127.848C306.221 128.256 305.849 128.586 305.345 128.838C304.853 129.09 304.247 129.216 303.527 129.216C302.819 129.216 302.159 129.036 301.547 128.676C300.947 128.304 300.467 127.8 300.107 127.164C299.747 126.516 299.567 125.802 299.567 125.022C299.567 124.23 299.753 123.504 300.125 122.844C300.509 122.184 301.007 121.668 301.619 121.296C302.243 120.924 302.897 120.738 303.581 120.738C304.229 120.738 304.805 120.834 305.309 121.026C305.813 121.206 306.197 121.446 306.461 121.746L306.659 121.134H308.981ZM304.283 127.164C305.291 127.164 306.017 126.768 306.461 125.976V124.05C306.293 123.666 306.011 123.36 305.615 123.132C305.231 122.904 304.787 122.79 304.283 122.79C303.671 122.79 303.155 122.994 302.735 123.402C302.315 123.81 302.105 124.326 302.105 124.95C302.105 125.574 302.315 126.102 302.735 126.534C303.155 126.954 303.671 127.164 304.283 127.164ZM317.041 120.756C317.785 120.756 318.403 120.978 318.895 121.422C319.399 121.866 319.657 122.43 319.669 123.114V129H317.149V124.05C317.113 123.282 316.729 122.898 315.997 122.898C315.421 122.898 314.959 123.168 314.611 123.708C314.263 124.248 314.089 124.944 314.089 125.796V129H311.569V114.798H314.035V122.376C314.323 121.872 314.719 121.476 315.223 121.188C315.739 120.9 316.345 120.756 317.041 120.756ZM325.515 117.678V121.098H327.423V123.06H325.515V129H322.995V123.06H321.771V121.098H322.995V117.678H325.515Z" fill="#555555"/>
<path d="M8.532 14.016C9.228 14.34 9.768 14.766 10.152 15.294C10.548 15.81 10.746 16.41 10.746 17.094C10.746 18.438 10.302 19.428 9.414 20.064C8.538 20.688 7.44 21 6.12 21H1.71V7.752H5.598C7.002 7.752 8.106 8.04 8.91 8.616C9.714 9.18 10.116 10.002 10.116 11.082C10.116 11.742 9.978 12.324 9.702 12.828C9.426 13.32 9.036 13.716 8.532 14.016ZM4.32 13.17H5.904C6.384 13.17 6.756 13.026 7.02 12.738C7.284 12.438 7.416 12.072 7.416 11.64C7.416 11.196 7.266 10.86 6.966 10.632C6.666 10.392 6.252 10.272 5.724 10.272H4.32V13.17ZM5.994 18.57C6.606 18.57 7.098 18.45 7.47 18.21C7.854 17.958 8.046 17.586 8.046 17.094C8.046 16.158 7.302 15.69 5.814 15.69H4.32V18.57H5.994ZM20.8703 13.134V21H18.5843L18.4043 19.74C18.1283 20.244 17.7383 20.646 17.2343 20.946C16.7423 21.234 16.1603 21.378 15.4883 21.378C14.7683 21.378 14.1683 21.156 13.6883 20.712C13.2083 20.268 12.9623 19.704 12.9503 19.02V13.134H15.4703V18.084C15.5063 18.852 15.8603 19.236 16.5323 19.236C17.0843 19.236 17.5223 18.966 17.8463 18.426C18.1823 17.886 18.3503 17.19 18.3503 16.338V13.134H20.8703ZM26.018 21.162C25.37 21.162 24.764 21.048 24.2 20.82C23.636 20.592 23.168 20.274 22.796 19.866L23.84 18.48C24.536 19.128 25.19 19.452 25.802 19.452C26.126 19.452 26.384 19.404 26.576 19.308C26.78 19.2 26.882 19.044 26.882 18.84C26.882 18.6 26.768 18.42 26.54 18.3C26.312 18.168 26.054 18.06 25.766 17.976C25.49 17.892 25.304 17.838 25.208 17.814C24.524 17.598 24.014 17.28 23.678 16.86C23.342 16.428 23.174 15.936 23.174 15.384C23.174 14.964 23.282 14.556 23.498 14.16C23.726 13.752 24.074 13.422 24.542 13.17C25.01 12.906 25.592 12.774 26.288 12.774C26.936 12.774 27.488 12.84 27.944 12.972C28.4 13.104 28.838 13.32 29.258 13.62L28.304 15.096C28.064 14.904 27.794 14.748 27.494 14.628C27.206 14.496 26.942 14.43 26.702 14.43C26.414 14.43 26.18 14.49 26 14.61C25.82 14.73 25.73 14.874 25.73 15.042C25.718 15.294 25.82 15.486 26.036 15.618C26.264 15.738 26.612 15.864 27.08 15.996C27.152 16.02 27.224 16.044 27.296 16.068C27.38 16.092 27.464 16.116 27.548 16.14C28.784 16.548 29.402 17.292 29.402 18.372C29.402 18.876 29.276 19.338 29.024 19.758C28.772 20.178 28.388 20.52 27.872 20.784C27.368 21.036 26.75 21.162 26.018 21.162ZM34.0328 13.134V21H31.5128V13.134H34.0328ZM31.4588 10.344C31.4588 9.984 31.5968 9.684 31.8728 9.444C32.1608 9.192 32.4848 9.066 32.8448 9.066C33.1928 9.066 33.5048 9.192 33.7808 9.444C34.0568 9.684 34.1948 9.984 34.1948 10.344C34.1948 10.704 34.0568 11.004 33.7808 11.244C33.5048 11.484 33.1928 11.604 32.8448 11.604C32.4848 11.604 32.1608 11.484 31.8728 11.244C31.5968 11.004 31.4588 10.704 31.4588 10.344ZM42.1 12.756C42.844 12.756 43.462 12.978 43.954 13.422C44.458 13.866 44.716 14.43 44.728 15.114V21H42.208V16.05C42.172 15.282 41.788 14.898 41.056 14.898C40.48 14.898 40.018 15.168 39.67 15.708C39.322 16.248 39.148 16.944 39.148 17.796V21H36.628V13.134H38.914L39.094 14.394C39.382 13.878 39.778 13.476 40.282 13.188C40.798 12.9 41.404 12.756 42.1 12.756ZM51.2395 19.074C51.7435 19.074 52.2655 18.9 52.8055 18.552L53.9215 20.424C53.4895 20.664 53.0335 20.856 52.5535 21C52.0735 21.144 51.6175 21.216 51.1855 21.216C50.2495 21.216 49.4395 21.042 48.7555 20.694C48.0835 20.334 47.5735 19.836 47.2255 19.2C46.8775 18.552 46.7035 17.814 46.7035 16.986C46.7035 16.218 46.9015 15.51 47.2975 14.862C47.7055 14.214 48.2575 13.704 48.9535 13.332C49.6495 12.948 50.4115 12.756 51.2395 12.756C52.3675 12.756 53.2915 13.086 54.0115 13.746C54.7435 14.406 55.2175 15.348 55.4335 16.572L49.6735 18.408C50.0575 18.852 50.5795 19.074 51.2395 19.074ZM51.0415 14.718C50.4775 14.718 50.0275 14.91 49.6915 15.294C49.3555 15.678 49.1875 16.194 49.1875 16.842V17.004L52.6435 15.834C52.3915 15.09 51.8575 14.718 51.0415 14.718ZM59.8208 21.162C59.1728 21.162 58.5668 21.048 58.0028 20.82C57.4388 20.592 56.9707 20.274 56.5988 19.866L57.6428 18.48C58.3388 19.128 58.9928 19.452 59.6048 19.452C59.9288 19.452 60.1868 19.404 60.3788 19.308C60.5828 19.2 60.6848 19.044 60.6848 18.84C60.6848 18.6 60.5708 18.42 60.3428 18.3C60.1148 18.168 59.8568 18.06 59.5688 17.976C59.2928 17.892 59.1068 17.838 59.0108 17.814C58.3268 17.598 57.8168 17.28 57.4808 16.86C57.1448 16.428 56.9768 15.936 56.9768 15.384C56.9768 14.964 57.0848 14.556 57.3008 14.16C57.5288 13.752 57.8768 13.422 58.3447 13.17C58.8128 12.906 59.3948 12.774 60.0908 12.774C60.7388 12.774 61.2908 12.84 61.7468 12.972C62.2028 13.104 62.6408 13.32 63.0608 13.62L62.1068 15.096C61.8668 14.904 61.5968 14.748 61.2968 14.628C61.0088 14.496 60.7448 14.43 60.5048 14.43C60.2168 14.43 59.9828 14.49 59.8028 14.61C59.6228 14.73 59.5328 14.874 59.5328 15.042C59.5208 15.294 59.6228 15.486 59.8388 15.618C60.0668 15.738 60.4148 15.864 60.8828 15.996C60.9548 16.02 61.0268 16.044 61.0988 16.068C61.1828 16.092 61.2668 16.116 61.3508 16.14C62.5868 16.548 63.2048 17.292 63.2048 18.372C63.2048 18.876 63.0788 19.338 62.8268 19.758C62.5748 20.178 62.1908 20.52 61.6748 20.784C61.1708 21.036 60.5528 21.162 59.8208 21.162ZM67.8715 21.162C67.2235 21.162 66.6175 21.048 66.0535 20.82C65.4895 20.592 65.0215 20.274 64.6495 19.866L65.6935 18.48C66.3895 19.128 67.0435 19.452 67.6555 19.452C67.9795 19.452 68.2375 19.404 68.4295 19.308C68.6335 19.2 68.7355 19.044 68.7355 18.84C68.7355 18.6 68.6215 18.42 68.3935 18.3C68.1655 18.168 67.9075 18.06 67.6195 17.976C67.3435 17.892 67.1575 17.838 67.0615 17.814C66.3775 17.598 65.8675 17.28 65.5315 16.86C65.1955 16.428 65.0275 15.936 65.0275 15.384C65.0275 14.964 65.1355 14.556 65.3515 14.16C65.5795 13.752 65.9275 13.422 66.3955 13.17C66.8635 12.906 67.4455 12.774 68.1415 12.774C68.7895 12.774 69.3415 12.84 69.7975 12.972C70.2535 13.104 70.6915 13.32 71.1115 13.62L70.1575 15.096C69.9175 14.904 69.6475 14.748 69.3475 14.628C69.0595 14.496 68.7955 14.43 68.5555 14.43C68.2675 14.43 68.0335 14.49 67.8535 14.61C67.6735 14.73 67.5835 14.874 67.5835 15.042C67.5715 15.294 67.6735 15.486 67.8895 15.618C68.1175 15.738 68.4655 15.864 68.9335 15.996C69.0055 16.02 69.0775 16.044 69.1495 16.068C69.2335 16.092 69.3175 16.116 69.4015 16.14C70.6375 16.548 71.2555 17.292 71.2555 18.372C71.2555 18.876 71.1295 19.338 70.8775 19.758C70.6255 20.178 70.2415 20.52 69.7255 20.784C69.2215 21.036 68.6035 21.162 67.8715 21.162ZM88.0218 13.134V21C88.0218 21.744 87.8058 22.416 87.3738 23.016C86.9538 23.628 86.3778 24.102 85.6458 24.438C84.9258 24.786 84.1398 24.96 83.2878 24.96C82.6398 24.96 82.0698 24.882 81.5778 24.726C81.0978 24.57 80.7078 24.396 80.4078 24.204C80.1198 24.012 79.7718 23.748 79.3638 23.412L80.8398 21.684C81.1998 22.02 81.5538 22.284 81.9018 22.476C82.2618 22.668 82.7118 22.764 83.2518 22.764C83.8878 22.764 84.4218 22.602 84.8538 22.278C85.2858 21.966 85.5018 21.528 85.5018 20.964V19.848C85.2618 20.256 84.8898 20.586 84.3858 20.838C83.8938 21.09 83.2878 21.216 82.5678 21.216C81.8598 21.216 81.1998 21.036 80.5878 20.676C79.9878 20.304 79.5078 19.8 79.1478 19.164C78.7878 18.516 78.6078 17.802 78.6078 17.022C78.6078 16.23 78.7938 15.504 79.1658 14.844C79.5498 14.184 80.0478 13.668 80.6598 13.296C81.2838 12.924 81.9378 12.738 82.6218 12.738C83.2698 12.738 83.8458 12.834 84.3498 13.026C84.8538 13.206 85.2378 13.446 85.5018 13.746L85.6998 13.134H88.0218ZM83.3238 19.164C84.3318 19.164 85.0578 18.768 85.5018 17.976V16.05C85.3338 15.666 85.0518 15.36 84.6558 15.132C84.2718 14.904 83.8278 14.79 83.3238 14.79C82.7118 14.79 82.1958 14.994 81.7758 15.402C81.3558 15.81 81.1458 16.326 81.1458 16.95C81.1458 17.574 81.3558 18.102 81.7758 18.534C82.1958 18.954 82.7118 19.164 83.3238 19.164ZM89.9985 16.968C89.9985 16.164 90.1845 15.444 90.5565 14.808C90.9405 14.172 91.4745 13.674 92.1585 13.314C92.8545 12.942 93.6405 12.756 94.5165 12.756C95.3925 12.756 96.1605 12.942 96.8205 13.314C97.4925 13.674 98.0085 14.172 98.3685 14.808C98.7285 15.444 98.9085 16.164 98.9085 16.968C98.9085 17.772 98.7285 18.498 98.3685 19.146C98.0085 19.794 97.4925 20.304 96.8205 20.676C96.1605 21.036 95.3805 21.216 94.4805 21.216C93.6045 21.216 92.8245 21.048 92.1405 20.712C91.4685 20.364 90.9405 19.872 90.5565 19.236C90.1845 18.6 89.9985 17.844 89.9985 16.968ZM92.5365 16.986C92.5365 17.61 92.7165 18.132 93.0765 18.552C93.4365 18.96 93.8925 19.164 94.4445 19.164C95.0205 19.164 95.4825 18.96 95.8305 18.552C96.1905 18.144 96.3705 17.622 96.3705 16.986C96.3705 16.35 96.1905 15.828 95.8305 15.42C95.4825 15.012 95.0205 14.808 94.4445 14.808C93.8925 14.808 93.4365 15.018 93.0765 15.438C92.7165 15.846 92.5365 16.362 92.5365 16.986ZM109.354 13.134V21H106.834V20.028C106.078 20.82 105.202 21.216 104.206 21.216C103.042 21.216 102.094 20.868 101.362 20.172C100.642 19.476 100.282 18.444 100.282 17.076C100.282 16.212 100.456 15.456 100.804 14.808C101.164 14.148 101.638 13.638 102.226 13.278C102.814 12.918 103.444 12.738 104.116 12.738C104.812 12.738 105.364 12.846 105.772 13.062C106.18 13.266 106.54 13.56 106.852 13.944L107.014 13.134H109.354ZM104.926 19.164C105.802 19.164 106.438 18.768 106.834 17.976V16.05C106.69 15.666 106.438 15.36 106.078 15.132C105.73 14.904 105.316 14.79 104.836 14.79C104.284 14.79 103.81 14.994 103.414 15.402C103.03 15.81 102.838 16.326 102.838 16.95C102.838 17.358 102.934 17.736 103.126 18.084C103.318 18.42 103.57 18.684 103.882 18.876C104.206 19.068 104.554 19.164 104.926 19.164ZM114.47 6.798V21H111.95V6.798H114.47Z" fill="#555555"/>
<path d="M35.354 358.212V372H32.744V365.682L28.424 371.82H28.388L24.23 366.078V372H21.71V358.212H21.728L28.442 367.734L35.318 358.212H35.354ZM37.7524 367.968C37.7524 367.164 37.9384 366.444 38.3104 365.808C38.6944 365.172 39.2284 364.674 39.9124 364.314C40.6084 363.942 41.3944 363.756 42.2704 363.756C43.1464 363.756 43.9144 363.942 44.5744 364.314C45.2464 364.674 45.7624 365.172 46.1224 365.808C46.4824 366.444 46.6624 367.164 46.6624 367.968C46.6624 368.772 46.4824 369.498 46.1224 370.146C45.7624 370.794 45.2464 371.304 44.5744 371.676C43.9144 372.036 43.1344 372.216 42.2344 372.216C41.3584 372.216 40.5784 372.048 39.8944 371.712C39.2224 371.364 38.6944 370.872 38.3104 370.236C37.9384 369.6 37.7524 368.844 37.7524 367.968ZM40.2904 367.986C40.2904 368.61 40.4704 369.132 40.8304 369.552C41.1904 369.96 41.6464 370.164 42.1984 370.164C42.7744 370.164 43.2364 369.96 43.5844 369.552C43.9444 369.144 44.1244 368.622 44.1244 367.986C44.1244 367.35 43.9444 366.828 43.5844 366.42C43.2364 366.012 42.7744 365.808 42.1984 365.808C41.6464 365.808 41.1904 366.018 40.8304 366.438C40.4704 366.846 40.2904 367.362 40.2904 367.986ZM55.3256 371.298C54.9776 371.574 54.5396 371.796 54.0116 371.964C53.4956 372.132 52.9856 372.216 52.4816 372.216C51.1136 372.216 50.0276 371.85 49.2236 371.118C48.4316 370.374 48.0356 369.354 48.0356 368.058C48.0356 367.218 48.2276 366.486 48.6116 365.862C49.0076 365.226 49.5236 364.746 50.1596 364.422C50.7956 364.086 51.4796 363.918 52.2116 363.918C53.5196 363.918 54.5816 364.266 55.3976 364.962L54.1736 366.582C53.6576 366.174 53.0816 365.97 52.4456 365.97C51.9176 365.97 51.4676 366.168 51.0956 366.564C50.7356 366.96 50.5556 367.458 50.5556 368.058C50.5556 368.658 50.7536 369.162 51.1496 369.57C51.5456 369.966 52.0616 370.164 52.6976 370.164C53.2496 370.164 53.7056 370.014 54.0656 369.714L55.3256 371.298ZM60.4828 368.724L59.7808 369.246V372H57.2608V357.798H59.7808V366.69L63.5248 363.936L65.0548 365.286L62.2648 367.392L65.3428 372H62.4088L60.4828 368.724ZM75.007 364.134V372H72.721L72.541 370.74C72.265 371.244 71.875 371.646 71.371 371.946C70.879 372.234 70.297 372.378 69.625 372.378C68.905 372.378 68.305 372.156 67.825 371.712C67.345 371.268 67.099 370.704 67.087 370.02V364.134H69.607V369.084C69.643 369.852 69.997 370.236 70.669 370.236C71.221 370.236 71.659 369.966 71.983 369.426C72.319 368.886 72.487 368.19 72.487 367.338V364.134H75.007ZM83.0347 363.738C83.7667 363.738 84.4207 363.912 84.9967 364.26C85.5727 364.608 86.0227 365.106 86.3467 365.754C86.6827 366.402 86.8507 367.164 86.8507 368.04C86.8507 368.904 86.6647 369.654 86.2927 370.29C85.9327 370.914 85.4227 371.394 84.7627 371.73C84.1147 372.054 83.3707 372.216 82.5307 372.216C82.0747 372.216 81.6247 372.138 81.1807 371.982C80.7487 371.814 80.3887 371.58 80.1007 371.28V375.78H77.5987V363.954H79.7587L79.9747 364.89C80.9347 364.122 81.9547 363.738 83.0347 363.738ZM82.0267 370.236C82.6507 370.236 83.1847 370.032 83.6287 369.624C84.0727 369.216 84.2947 368.7 84.2947 368.076C84.2947 367.428 84.0907 366.9 83.6827 366.492C83.2867 366.072 82.7947 365.862 82.2067 365.862C81.7147 365.862 81.2947 365.964 80.9467 366.168C80.6107 366.36 80.3347 366.654 80.1187 367.05V368.976C80.2507 369.36 80.4847 369.666 80.8207 369.894C81.1687 370.122 81.5707 370.236 82.0267 370.236ZM91.3872 372.162C90.7392 372.162 90.1332 372.048 89.5692 371.82C89.0052 371.592 88.5372 371.274 88.1652 370.866L89.2092 369.48C89.9052 370.128 90.5592 370.452 91.1712 370.452C91.4952 370.452 91.7532 370.404 91.9452 370.308C92.1492 370.2 92.2512 370.044 92.2512 369.84C92.2512 369.6 92.1372 369.42 91.9092 369.3C91.6812 369.168 91.4232 369.06 91.1352 368.976C90.8592 368.892 90.6732 368.838 90.5772 368.814C89.8932 368.598 89.3832 368.28 89.0472 367.86C88.7112 367.428 88.5432 366.936 88.5432 366.384C88.5432 365.964 88.6512 365.556 88.8672 365.16C89.0952 364.752 89.4432 364.422 89.9112 364.17C90.3792 363.906 90.9612 363.774 91.6572 363.774C92.3052 363.774 92.8572 363.84 93.3132 363.972C93.7692 364.104 94.2072 364.32 94.6272 364.62L93.6732 366.096C93.4332 365.904 93.1632 365.748 92.8632 365.628C92.5752 365.496 92.3112 365.43 92.0712 365.43C91.7832 365.43 91.5492 365.49 91.3692 365.61C91.1892 365.73 91.0992 365.874 91.0992 366.042C91.0872 366.294 91.1892 366.486 91.4052 366.618C91.6332 366.738 91.9812 366.864 92.4492 366.996C92.5212 367.02 92.5932 367.044 92.6652 367.068C92.7492 367.092 92.8332 367.116 92.9172 367.14C94.1532 367.548 94.7712 368.292 94.7712 369.372C94.7712 369.876 94.6452 370.338 94.3932 370.758C94.1412 371.178 93.7572 371.52 93.2412 371.784C92.7372 372.036 92.1192 372.162 91.3872 372.162Z" fill="#555555"/>
<path d="M58.3386 68.5026V37.1349M58.3386 168.359V76.8582M164.129 15.3556H139.66M505.736 15.3556H172.33M578.732 64.9412V37.1349M578.732 309.171V72.064M141.847 196.028H107.399M238.492 196.028H149.775M505.735 23.8481L514.347 15.3556L505.872 7M570.257 309.171L578.732 317.663L587.207 309.308M238.492 204.521L246.967 196.028L238.629 187.535M50 170.276L58.4752 178.906L66.8138 170.413M556.587 45.7644L547.975 37.1349L539.637 45.6275M439.301 173.564C411.004 185.207 378.607 192.878 343.749 195.754M548.112 45.9014C548.112 96.0349 510.383 140.415 452.287 167.948M278.544 236.299H260.91C258.587 236.299 256.536 235.477 254.896 233.834C253.255 232.19 252.435 230.135 252.435 227.807V221.232C252.435 217.396 253.665 213.835 255.989 210.822C258.45 207.808 261.457 205.753 265.148 204.795L277.588 201.644C283.055 205.616 289.344 207.808 296.178 207.945C298.092 207.945 300.143 207.945 301.92 207.671M308.071 206.438C311.215 205.342 314.222 203.836 317.093 201.781L329.533 204.932C333.223 205.89 336.367 207.808 338.691 210.958C341.152 213.972 342.245 217.533 342.245 221.369V227.944C342.245 230.272 341.425 232.327 339.785 233.971C338.145 235.614 336.094 236.436 333.77 236.436H287.156M271.573 163.154C270.069 166.578 269.249 170.276 269.249 174.249C269.249 179.317 270.479 183.974 273.077 188.357C275.674 192.741 278.955 196.165 283.329 198.631C287.703 201.096 292.351 202.466 297.409 202.466C302.466 202.466 307.114 201.233 311.488 198.631C315.863 196.165 319.28 192.741 321.741 188.357C324.201 183.974 325.568 179.317 325.568 174.249C325.568 169.181 324.338 164.523 321.741 160.14C319.28 155.757 315.863 152.332 311.488 149.867C307.114 147.401 302.466 146.031 297.409 146.031C292.351 146.031 287.703 147.264 283.329 149.867C279.228 152.332 275.81 155.62 273.35 159.592M136.106 326.43H229.607V402.726H141.71M135.422 402.726H116.148V326.43H127.767M153.466 351.086V361.77H125.443V337.799H153.466V345.333M172.877 361.77H160.028V337.799H221.678V361.77H178.345M210.606 368.345H221.678V392.316H160.028V368.345H202.814M153.466 369.989H125.443M140.207 378.207H125.443M153.466 378.207H145.811M153.466 386.426H125.443M339.101 403H244.097V392.59M343.749 326.704H357.555V403H347.03M244.097 384.919V326.704H331.72M264.191 338.073H281.415V362.044H253.529V338.073H261.184M296.315 370.263H315.043V392.59H287.977V370.263H292.761M339.511 392.59H321.194V370.263H348.26V392.59H343.612M269.796 370.263H253.529M281.415 370.263H276.494M281.415 378.481H253.529M281.415 386.7H253.529M314.086 338.073H287.977M348.26 338.073H317.093M295.358 346.292H287.977M348.26 346.292H299.322M348.26 354.51H287.977M334.727 362.044H287.977M348.26 362.044H338.281M587.207 340.812H545.104M605.388 340.812H596.776M563.832 349.031H545.104M605.388 349.031H572.581M605.388 357.25H545.104M587.207 364.783H545.104M605.388 364.783H596.366M551.529 373.139H545.104M605.388 373.139H562.465M605.388 381.358H545.104M575.178 388.891H545.104M605.388 388.891H587.207M372.319 381.358V326.704H485.778V345.881M485.778 354.51V403H372.319V390.261M449.963 346.703V338.073H477.849V362.044H449.963V353.277M381.614 347.387V338.073H443.265V362.044H381.614V353.003M428.912 369.441H443.265V393.412H414.558V369.441H422.624M477.849 370.263H449.963M463.906 378.481H449.963M477.849 378.481H470.468M477.849 386.7H449.963M384.211 370.263H381.478M409.364 370.263H391.32M409.364 378.481H381.478M397.061 386.7H381.478M409.364 386.7H403.759M500.541 343.552V326.704H614V403H607.712M597.596 403H500.541V354.099M521.592 362.044H509.836V338.073H537.859V362.044H531.298M515.168 391.905H509.836V367.934H537.859V391.905H523.78" stroke="#555555" stroke-width="3" stroke-miterlimit="10"/>
</svg>
