<svg width="24" height="24" viewBox="0 0 24 24" fill="none" xmlns="http://www.w3.org/2000/svg">
<path d="M12.005 23.9919C5.4466 24.0429 -0.0446872 18.6625 0.000274158 11.9153C0.0452355 5.35694 5.37765 -0.062403 12.1488 0.000542868C18.6712 0.0634888 24.1295 5.45586 23.9977 12.266C23.8748 18.6535 18.5963 24.0339 12.005 23.9919ZM10.7101 13.5279C10.7101 14.7029 10.7131 15.8749 10.7071 17.0499C10.7071 17.1938 10.749 17.2387 10.8929 17.2387C11.5224 17.2327 12.1518 17.2327 12.7813 17.2387C12.9282 17.2417 12.9851 17.1998 12.9821 17.0469C12.9731 16.6123 12.9731 16.1776 12.9791 15.743C12.9911 14.8498 12.9342 13.9536 13.0091 13.0633C13.081 12.218 13.4257 11.7025 14.271 11.6455C14.8765 11.6036 15.3351 11.8524 15.503 12.4758C15.5929 12.8115 15.6169 13.1532 15.6169 13.4979C15.6169 14.6819 15.6199 15.8659 15.6139 17.0499C15.6139 17.1908 15.6528 17.2447 15.7997 17.2417C16.4382 17.2357 17.0796 17.2357 17.7181 17.2417C17.8499 17.2417 17.8889 17.1968 17.8889 17.0679C17.8829 15.6381 17.8919 14.2113 17.8799 12.7816C17.8739 12.2121 17.805 11.6455 17.6012 11.106C17.4033 10.5874 17.0826 10.1768 16.573 9.92801C16.1234 9.7092 15.6408 9.64925 15.1463 9.65225C14.244 9.65525 13.5157 9.98497 13.0091 10.7523C12.9881 10.7823 12.9731 10.8362 12.9252 10.8212C12.8802 10.8063 12.8892 10.7553 12.8892 10.7163C12.8892 10.4915 12.8892 10.2667 12.8892 10.0419C12.8892 9.84409 12.8832 9.83809 12.6914 9.83809C12.1069 9.83809 11.5224 9.83809 10.9379 9.83809C10.7131 9.83809 10.7131 9.83809 10.7131 10.0569C10.7101 11.2109 10.7101 12.3679 10.7101 13.5279ZM9.22635 13.5339C9.22635 12.3649 9.22335 11.1959 9.22935 10.0269C9.22935 9.87706 9.19038 9.8261 9.03451 9.8291C8.40505 9.83509 7.77559 9.83509 7.14613 9.8291C6.99327 9.8261 6.9513 9.88005 6.9513 10.0269C6.9543 12.3649 6.9543 14.7029 6.9513 17.0379C6.9513 17.1878 6.99327 17.2387 7.14613 17.2357C7.7696 17.2297 8.39606 17.2327 9.01953 17.2327C9.22335 17.2327 9.22635 17.2327 9.22635 17.0229C9.22635 15.8599 9.22635 14.6969 9.22635 13.5339ZM6.77445 7.44015C6.77445 8.17752 7.36195 8.777 8.08733 8.777C8.80971 8.777 9.40619 8.17452 9.40619 7.44315C9.40619 6.70878 8.8157 6.11829 8.08133 6.12128C7.35296 6.12128 6.77445 6.70278 6.77445 7.44015Z" fill="#555555"/>
</svg>
