<svg width="578" height="304" viewBox="0 0 578 304" fill="none" xmlns="http://www.w3.org/2000/svg">
<path d="M357.354 279.212V293H354.744V286.682L350.424 292.82H350.388L346.23 287.078V293H343.71V279.212H343.728L350.442 288.734L357.318 279.212H357.354ZM368.824 285.134V293H366.304V292.028C365.548 292.82 364.672 293.216 363.676 293.216C362.512 293.216 361.564 292.868 360.832 292.172C360.112 291.476 359.752 290.444 359.752 289.076C359.752 288.212 359.926 287.456 360.274 286.808C360.634 286.148 361.108 285.638 361.696 285.278C362.284 284.918 362.914 284.738 363.586 284.738C364.282 284.738 364.834 284.846 365.242 285.062C365.65 285.266 366.01 285.56 366.322 285.944L366.484 285.134H368.824ZM364.396 291.164C365.272 291.164 365.908 290.768 366.304 289.976V288.05C366.16 287.666 365.908 287.36 365.548 287.132C365.2 286.904 364.786 286.79 364.306 286.79C363.754 286.79 363.28 286.994 362.884 287.402C362.5 287.81 362.308 288.326 362.308 288.95C362.308 289.358 362.404 289.736 362.596 290.084C362.788 290.42 363.04 290.684 363.352 290.876C363.676 291.068 364.024 291.164 364.396 291.164ZM374.643 289.724L373.941 290.246V293H371.421V278.798H373.941V287.69L377.685 284.936L379.215 286.286L376.425 288.392L379.503 293H376.569L374.643 289.724ZM384.995 291.074C385.499 291.074 386.021 290.9 386.561 290.552L387.677 292.424C387.245 292.664 386.789 292.856 386.309 293C385.829 293.144 385.373 293.216 384.941 293.216C384.005 293.216 383.195 293.042 382.511 292.694C381.839 292.334 381.329 291.836 380.981 291.2C380.633 290.552 380.459 289.814 380.459 288.986C380.459 288.218 380.657 287.51 381.053 286.862C381.461 286.214 382.013 285.704 382.709 285.332C383.405 284.948 384.167 284.756 384.995 284.756C386.123 284.756 387.047 285.086 387.767 285.746C388.499 286.406 388.973 287.348 389.189 288.572L383.429 290.408C383.813 290.852 384.335 291.074 384.995 291.074ZM384.797 286.718C384.233 286.718 383.783 286.91 383.447 287.294C383.111 287.678 382.943 288.194 382.943 288.842V289.004L386.399 287.834C386.147 287.09 385.613 286.718 384.797 286.718ZM393.577 293.162C392.929 293.162 392.323 293.048 391.759 292.82C391.195 292.592 390.727 292.274 390.355 291.866L391.399 290.48C392.095 291.128 392.749 291.452 393.361 291.452C393.685 291.452 393.943 291.404 394.135 291.308C394.339 291.2 394.441 291.044 394.441 290.84C394.441 290.6 394.327 290.42 394.099 290.3C393.871 290.168 393.613 290.06 393.325 289.976C393.049 289.892 392.863 289.838 392.767 289.814C392.083 289.598 391.573 289.28 391.237 288.86C390.901 288.428 390.733 287.936 390.733 287.384C390.733 286.964 390.841 286.556 391.057 286.16C391.285 285.752 391.633 285.422 392.101 285.17C392.569 284.906 393.151 284.774 393.847 284.774C394.495 284.774 395.047 284.84 395.503 284.972C395.959 285.104 396.397 285.32 396.817 285.62L395.863 287.096C395.623 286.904 395.353 286.748 395.053 286.628C394.765 286.496 394.501 286.43 394.261 286.43C393.973 286.43 393.739 286.49 393.559 286.61C393.379 286.73 393.289 286.874 393.289 287.042C393.277 287.294 393.379 287.486 393.595 287.618C393.823 287.738 394.171 287.864 394.639 287.996C394.711 288.02 394.783 288.044 394.855 288.068C394.939 288.092 395.023 288.116 395.107 288.14C396.343 288.548 396.961 289.292 396.961 290.372C396.961 290.876 396.835 291.338 396.583 291.758C396.331 292.178 395.947 292.52 395.431 292.784C394.927 293.036 394.309 293.162 393.577 293.162ZM415.293 284.738C416.061 284.738 416.673 284.954 417.129 285.386C417.597 285.818 417.843 286.388 417.867 287.096V293H415.365V288.14C415.341 287.744 415.275 287.45 415.167 287.258C415.059 287.054 414.849 286.94 414.537 286.916C413.949 286.916 413.487 287.204 413.151 287.78C412.827 288.344 412.665 289.01 412.665 289.778V293H410.145V288.14C410.121 287.744 410.049 287.45 409.929 287.258C409.809 287.054 409.587 286.94 409.263 286.916C408.699 286.916 408.255 287.204 407.931 287.78C407.607 288.344 407.445 288.998 407.445 289.742V293H404.925V285.134H407.211L407.391 286.376C408.027 285.284 408.975 284.738 410.235 284.738C410.871 284.738 411.393 284.87 411.801 285.134C412.221 285.386 412.509 285.764 412.665 286.268C413.001 285.8 413.397 285.428 413.853 285.152C414.321 284.876 414.801 284.738 415.293 284.738ZM428.6 285.134L423.524 296.78H421.094L422.984 292.586L419.348 285.134H422.174L424.244 289.778L426.332 285.134H428.6ZM442.611 292.298C442.263 292.574 441.825 292.796 441.297 292.964C440.781 293.132 440.271 293.216 439.767 293.216C438.399 293.216 437.313 292.85 436.509 292.118C435.717 291.374 435.321 290.354 435.321 289.058C435.321 288.218 435.513 287.486 435.897 286.862C436.293 286.226 436.809 285.746 437.445 285.422C438.081 285.086 438.765 284.918 439.497 284.918C440.805 284.918 441.867 285.266 442.683 285.962L441.459 287.582C440.943 287.174 440.367 286.97 439.731 286.97C439.203 286.97 438.753 287.168 438.381 287.564C438.021 287.96 437.841 288.458 437.841 289.058C437.841 289.658 438.039 290.162 438.435 290.57C438.831 290.966 439.347 291.164 439.983 291.164C440.535 291.164 440.991 291.014 441.351 290.714L442.611 292.298ZM453.006 285.134V293H450.486V292.028C449.73 292.82 448.854 293.216 447.858 293.216C446.694 293.216 445.746 292.868 445.014 292.172C444.294 291.476 443.934 290.444 443.934 289.076C443.934 288.212 444.108 287.456 444.456 286.808C444.816 286.148 445.29 285.638 445.878 285.278C446.466 284.918 447.096 284.738 447.768 284.738C448.464 284.738 449.016 284.846 449.424 285.062C449.832 285.266 450.192 285.56 450.504 285.944L450.666 285.134H453.006ZM448.578 291.164C449.454 291.164 450.09 290.768 450.486 289.976V288.05C450.342 287.666 450.09 287.36 449.73 287.132C449.382 286.904 448.968 286.79 448.488 286.79C447.936 286.79 447.462 286.994 447.066 287.402C446.682 287.81 446.49 288.326 446.49 288.95C446.49 289.358 446.586 289.736 446.778 290.084C446.97 290.42 447.222 290.684 447.534 290.876C447.858 291.068 448.206 291.164 448.578 291.164ZM458.069 286.934C458.285 286.514 458.579 286.136 458.951 285.8C459.335 285.464 459.725 285.206 460.121 285.026C460.517 284.834 460.829 284.738 461.057 284.738L460.931 287.258C460.859 287.246 460.757 287.24 460.625 287.24C460.121 287.24 459.677 287.372 459.293 287.636C458.909 287.9 458.615 288.242 458.411 288.662C458.207 289.07 458.105 289.49 458.105 289.922V293H455.603V285.134H457.871L458.069 286.934ZM466.558 291.074C467.062 291.074 467.584 290.9 468.124 290.552L469.24 292.424C468.808 292.664 468.352 292.856 467.872 293C467.392 293.144 466.936 293.216 466.504 293.216C465.568 293.216 464.758 293.042 464.074 292.694C463.402 292.334 462.892 291.836 462.544 291.2C462.196 290.552 462.022 289.814 462.022 288.986C462.022 288.218 462.22 287.51 462.616 286.862C463.024 286.214 463.576 285.704 464.272 285.332C464.968 284.948 465.73 284.756 466.558 284.756C467.686 284.756 468.61 285.086 469.33 285.746C470.062 286.406 470.536 287.348 470.752 288.572L464.992 290.408C465.376 290.852 465.898 291.074 466.558 291.074ZM466.36 286.718C465.796 286.718 465.346 286.91 465.01 287.294C464.674 287.678 464.506 288.194 464.506 288.842V289.004L467.962 287.834C467.71 287.09 467.176 286.718 466.36 286.718ZM476.507 291.074C477.011 291.074 477.533 290.9 478.073 290.552L479.189 292.424C478.757 292.664 478.301 292.856 477.821 293C477.341 293.144 476.885 293.216 476.453 293.216C475.517 293.216 474.707 293.042 474.023 292.694C473.351 292.334 472.841 291.836 472.493 291.2C472.145 290.552 471.971 289.814 471.971 288.986C471.971 288.218 472.169 287.51 472.565 286.862C472.973 286.214 473.525 285.704 474.221 285.332C474.917 284.948 475.679 284.756 476.507 284.756C477.635 284.756 478.559 285.086 479.279 285.746C480.011 286.406 480.485 287.348 480.701 288.572L474.941 290.408C475.325 290.852 475.847 291.074 476.507 291.074ZM476.309 286.718C475.745 286.718 475.295 286.91 474.959 287.294C474.623 287.678 474.455 288.194 474.455 288.842V289.004L477.911 287.834C477.659 287.09 477.125 286.718 476.309 286.718ZM484.998 286.934C485.214 286.514 485.508 286.136 485.88 285.8C486.264 285.464 486.654 285.206 487.05 285.026C487.446 284.834 487.758 284.738 487.986 284.738L487.86 287.258C487.788 287.246 487.686 287.24 487.554 287.24C487.05 287.24 486.606 287.372 486.222 287.636C485.838 287.9 485.544 288.242 485.34 288.662C485.136 289.07 485.034 289.49 485.034 289.922V293H482.532V285.134H484.8L484.998 286.934Z" fill="#555555"/>
<path d="M40.4939 102.818H60.8853C64.2839 102.818 67.0965 105.639 67.0965 109.046V156.4M1.58594 126.319V109.046C1.58594 105.639 4.39855 102.818 7.79713 102.818H35.1029M67.0964 164.038V172.733C67.0964 185.659 56.6663 196.234 43.658 196.234H7.79713C4.39855 196.234 1.58594 193.414 1.58594 190.006V131.959M47.0564 149.585H11.7816V114.921H18.3443M23.1495 114.921H57.2524V149.585H51.7444M58.6584 167.093C57.9553 167.681 57.0177 168.033 56.0802 167.916C53.9707 167.798 52.33 166.036 52.33 163.803C52.33 161.57 54.2051 160.043 56.4318 160.043C58.5412 160.16 60.1819 161.923 60.1819 164.156C60.1819 164.626 60.0647 165.096 59.9475 165.448M43.4233 170.501C44.1264 169.796 45.1811 169.443 46.2359 169.443C48.3453 169.561 49.986 171.323 49.986 173.556C49.8688 175.671 48.111 177.316 45.8843 177.316C43.7748 177.198 42.1341 175.436 42.1341 173.203C42.1341 172.616 42.3685 172.028 42.6029 171.558M23.2665 164.978H21.2742V158.163H15.4146V164.978H8.61743V170.853H15.4146V177.669H21.2742V170.853H28.0714V164.978H25.9619M24.4381 186.364H29.1258C30.4149 186.364 31.4697 187.421 31.4697 188.714C31.4697 190.006 30.4149 191.064 29.1258 191.064H22.7974C21.5083 191.064 20.4536 190.006 20.4536 188.714C20.4536 187.421 21.5083 186.364 22.7974 186.364M41.1969 191.064H37.3295C36.0404 191.064 34.9857 190.006 34.9857 188.714C34.9857 187.421 36.0404 186.364 37.3295 186.364H43.6579C44.947 186.364 46.0017 187.421 46.0017 188.714C46.0017 190.006 44.947 191.064 43.6579 191.064H43.1891M339.568 192.709H346.248C347.537 192.709 348.592 193.767 348.592 195.059C348.592 196.352 347.537 197.409 346.248 197.409H331.482C330.193 197.409 329.138 196.352 329.138 195.059C329.138 193.767 330.193 192.709 331.482 192.709H336.521M291.285 197.292H288.121C286.832 197.292 285.777 196.234 285.777 194.942C285.777 193.649 286.832 192.592 288.121 192.592H302.887C304.176 192.592 305.231 193.649 305.231 194.942C305.231 196.234 304.176 197.292 302.887 197.292H295.504M310.036 76.7325H357.147C365.351 76.7325 371.914 83.4302 371.914 91.538V180.136C371.914 194.707 360.077 206.575 345.545 206.575H322.224M316.716 206.692H288.59C274.058 206.692 262.222 194.824 262.222 180.254V91.6556M262.222 91.6556C262.222 83.4303 268.902 76.85 276.988 76.85H303.005M262.222 91.6556V168.856C262.222 176.611 268.433 182.839 276.167 182.839M347.186 86.9554C354.92 86.9554 361.131 93.1831 361.131 100.938V154.403C361.131 162.158 354.92 168.386 347.186 168.386H336.287M331.365 168.503H286.949C279.214 168.503 273.003 162.275 273.003 154.52V100.938C273.003 93.1831 279.214 86.9554 286.949 86.9554H340.154M371.913 91.6555V168.856C371.913 176.611 365.702 182.839 357.968 182.839H282.496M334.178 109.986H346.6C349.413 109.986 351.639 112.219 351.639 115.039C351.639 119.387 348.124 122.912 343.788 122.912H305.348M299.957 122.912H290.465C286.129 122.912 282.613 119.387 282.613 115.039C282.613 112.219 284.839 109.986 287.652 109.986H327.029M325.154 144.65H330.193C332.42 144.65 334.295 146.53 334.295 148.763V154.99C334.295 157.223 332.42 159.103 330.193 159.103H304.176C301.95 159.103 300.075 157.223 300.075 154.99V148.763C300.075 146.53 301.95 144.65 304.176 144.65H320.935M343.319 159.103H341.209C338.982 159.103 337.107 157.223 337.107 154.99V148.763C337.107 146.53 338.982 144.65 341.209 144.65H347.42C349.647 144.65 351.522 146.53 351.522 148.763V154.99C351.522 157.223 349.647 159.103 347.42 159.103M288.59 144.65H293.043C295.27 144.65 297.145 146.53 297.145 148.763V154.99C297.145 157.223 295.27 159.103 293.043 159.103H286.832C284.605 159.103 282.73 157.223 282.73 154.99V148.763C282.73 146.53 284.605 144.65 286.832 144.65M288.238 153.698H282.613V150.055H297.027V153.698H291.285M216.868 201.992V206.339H138.115M216.868 201.992L192.609 201.992M216.868 201.992L216.868 174.731M132.724 206.339H112.449V201.992M112.449 201.992V176.023M112.449 201.992L188.273 201.992M119.012 77.2026H112.449V96.1207M216.868 95.7682V77.2026H201.164V82.1377H128.154V77.2026H121.591M192.609 81.7852V91.303M186.398 81.7852V91.303M180.187 81.7852V91.303M173.976 81.7852V91.303M167.764 81.7852V91.303M161.553 81.7852V91.303M155.342 81.7852V91.303M149.131 81.7852V91.303M142.803 81.7852V91.303M136.591 81.7852V91.303M196.945 174.731H189.211V160.395H203.508V174.731H200.227M139.873 191.182H125.693V184.014H167.765M170.694 184.014H203.625V191.182H142.92M168.82 152.053H152.999C151.475 152.053 150.186 153.11 149.834 154.638L147.373 166.388H181.945L179.484 154.638C179.132 153.11 177.843 152.053 176.32 152.053H172.804M136.591 131.959H125.575V117.741H203.625V131.959H142.802M132.138 160.395H139.873V174.731M139.873 174.731H125.575M139.873 174.731V166.271H132.138M125.575 174.731V160.395H129.677M125.575 174.731V166.271H129.677M216.868 202.462L211.009 184.249M112.449 202.462L118.309 184.249M155.342 141.947H181.945V147.822M147.373 147.822V141.947H151.944M164.6 147.822V141.947M179.015 123.032H128.505M200.579 123.032H183.117M462.034 196.939H459.105C457.815 196.939 456.761 195.882 456.761 194.589C456.761 193.297 457.815 192.239 459.105 192.239H480.199C481.488 192.239 482.543 193.297 482.543 194.589C482.543 195.882 481.488 196.939 480.199 196.939H467.308M513.95 196.939H506.216C504.926 196.939 503.872 195.882 503.872 194.589C503.872 193.297 504.926 192.239 506.216 192.239H527.31C528.599 192.239 529.654 193.297 529.654 194.589C529.654 195.882 528.599 196.939 527.31 196.939H518.404M426.173 78.9651H444.455V115.156M444.456 159.573V194.472M444.456 194.472H410.001M444.456 194.472V204.342H438.244M410.001 194.472V78.9651H421.134M410.001 194.472V204.342H432.15M576.414 149.115V194.707M576.414 194.707H541.959M576.414 194.707V204.577H541.959V194.707M541.959 194.707V159.573M541.959 115.156V79.2001H576.414V142.182M541.96 166.153V188.831H444.455M444.455 188.831V164.038M444.455 188.831H542.077V200.229H444.455V188.831ZM533.17 83.1953H541.959V110.339M444.455 109.986V83.1953H526.373M462.034 100.938C470.941 96.3557 481.723 93.6531 493.325 93.6531C524.732 93.6531 550.163 113.394 550.163 137.717C550.163 154.99 537.389 169.913 518.755 177.199M512.427 179.314C506.45 180.959 500.005 181.899 493.207 181.899C461.8 181.899 436.369 162.158 436.369 137.835C436.369 124.204 444.338 112.101 456.761 103.993M568.094 171.558C568.797 172.851 569.148 174.378 569.148 175.906C569.148 181.194 564.812 185.541 559.539 185.541C554.265 185.541 549.929 181.194 549.929 175.906C549.929 170.618 554.265 166.271 559.539 166.271C562 166.271 564.226 167.211 565.867 168.621M434.728 170.031C435.9 171.676 436.604 173.673 436.604 175.788C436.604 181.076 432.267 185.424 426.994 185.424C421.72 185.424 417.384 181.076 417.384 175.788C417.384 170.501 421.72 166.153 426.994 166.153C429.103 166.153 430.978 166.858 432.619 167.916M417.736 156.518C417.501 155.93 417.384 155.343 417.384 154.638C417.384 151.935 419.493 149.82 422.189 149.82C424.884 149.82 426.994 151.935 426.994 154.638C426.994 157.34 424.884 159.455 422.189 159.455C420.783 159.455 419.611 158.868 418.79 158.045M285.894 291.412H329.021L319.177 281.425M34.3996 276.959V291.412H273.003M422.189 252.636H34.3996M34.3996 252.636V268.617M34.3996 252.636V227.373M493.208 227.373V252.636H431.33M317.068 227.373V252.636M161.553 227.373V252.636M550.632 3.17499C550.866 3.17499 551.101 3.29249 551.335 3.29249C562.82 6.11259 571.258 16.5705 571.258 28.9084C571.258 43.4789 559.421 55.3468 544.889 55.3468C543.366 55.3468 541.842 55.2293 540.319 54.9943M537.741 54.2893C526.724 51.1167 518.638 41.0113 518.638 28.9084C518.638 14.3379 530.475 2.46997 545.006 2.46997M536.569 29.0259C536.569 28.9084 536.569 28.7909 536.569 28.6734C536.803 24.2082 540.436 20.5656 545.007 20.5656C549.694 20.5656 553.444 24.3257 553.444 29.0259C553.444 33.726 549.694 37.4862 545.007 37.4862C541.374 37.4862 538.327 35.1361 537.155 31.9635M563.64 10.3427L553.562 20.5656M548.053 21.1531L554.616 4.46754M567.742 42.3038L552.273 33.256M539.498 35.3711L527.779 48.8841M522.271 42.3038L537.74 33.256M536.803 27.4983L519.107 24.4432M532.115 5.99511L540.905 21.6231M472.933 2.94C474.34 2.70499 475.629 2.58749 477.035 2.58749C491.567 2.58749 503.403 14.4554 503.403 29.0259C503.403 37.8387 499.067 45.594 492.504 50.4116M488.52 52.7617C485.004 54.4068 481.137 55.3468 477.035 55.3468C462.503 55.3468 450.667 43.4789 450.667 28.9084C450.667 16.8055 458.753 6.70013 469.769 3.52752M470.472 23.7382C471.996 21.8581 474.34 20.5656 477.035 20.5656C481.723 20.5656 485.473 24.3257 485.473 29.0259C485.473 33.726 481.723 37.4862 477.035 37.4862C472.347 37.4862 468.597 33.6085 468.597 29.0259C468.597 27.4983 469.066 25.9708 469.769 24.7957M495.669 10.3427L485.59 20.5656M480.082 21.1531L486.645 4.46754M499.77 42.3038L484.301 33.256M471.527 35.3711L459.808 48.8841M454.3 42.3038L469.769 33.256M468.714 27.4983L451.135 24.4432M464.026 5.99511L472.933 21.6231M405.782 11.7528H372.616V48.4141H377.656V54.6418H417.384M424.064 54.6418H430.275V48.4141H435.431V11.7528H411.876M389.727 41.8338H378.945V18.333H429.103V41.8338H395.352M389.727 48.5315H383.867M424.064 48.5315H395.001M317.068 54.6418H352.225V48.4141H357.265V11.7528H334.178M327.263 11.7528H294.566V48.4141H299.606V54.6418H310.036M313.434 18.333H350.936V41.8338H340.154M332.654 41.8338H300.778V18.333H305.817M330.662 48.5315H305.817M346.014 48.5315H337.107M262.221 9.87274H272.886C276.402 9.87274 279.214 12.6928 279.214 16.218V56.5218H265.854M265.854 56.5218L265.854 39.3662M265.854 56.5218H212.532V16.218C212.532 12.6928 215.345 9.87274 218.86 9.87274H256.245M250.268 36.0761H225.423C222.845 36.0761 220.852 33.9611 220.852 31.4935V21.7406C220.852 19.1556 222.962 17.158 225.423 17.158H266.44C269.019 17.158 271.011 19.2731 271.011 21.7406V31.376C271.011 33.9611 268.901 35.9586 266.44 35.9586H256.245M239.369 48.0615H234.213C233.158 48.0615 232.338 47.239 232.338 46.1815C232.338 45.1239 233.158 44.3014 234.213 44.3014H257.417C258.472 44.3014 259.292 45.1239 259.292 46.1815C259.292 47.239 258.472 48.0615 257.417 48.0615H244.174M225.892 39.3662V56.5218M145.849 9.87274H190.851C194.367 9.87274 197.18 12.6928 197.18 16.218V56.5218H153.233M150.303 56.5218H130.497V16.218C130.497 12.6928 133.31 9.87274 136.826 9.87274H143.857M178.781 17.0405H184.289C186.867 17.0405 188.859 19.1555 188.859 21.6231V31.376C188.859 33.9611 186.75 35.9586 184.289 35.9586H144.443M143.271 36.0761C140.693 36.0761 138.701 33.9611 138.701 31.4935V21.7406C138.701 19.1556 140.81 17.158 143.271 17.158H176.202M171.515 44.1839H175.499C176.554 44.1839 177.374 45.0065 177.374 46.064C177.374 47.1215 176.554 47.944 175.499 47.944H152.178C151.123 47.944 150.303 47.1215 150.303 46.064C150.303 45.0065 151.123 44.1839 152.178 44.1839H168.702M183.82 39.3662V56.5218M143.857 39.3662V56.5218M72.956 58.6369H68.6199V11.9878H75.6515M79.8704 11.9878H115.145V58.6369H78.5813M78.5813 19.5081C78.5813 17.863 79.8704 16.5705 81.5111 16.5705H102.137C103.778 16.5705 105.067 17.863 105.067 19.5081M100.379 24.4432H106.473V51.8216H77.175V24.4432H95.2226M6.74238 28.3209V11.9878H53.2677V47.944M53.2677 53.1142V58.6369H6.74238V35.3711M35.6887 16.5705H40.3764C42.017 16.5705 43.3062 17.863 43.3062 19.5081M16.7038 19.5081C16.7038 17.863 17.9929 16.5705 19.6336 16.5705H31.0012M19.9851 51.8216H15.2974V24.4432H44.5955V51.8216H23.9697M346.834 178.256H341.795C340.506 178.256 339.451 177.198 339.451 175.906C339.451 174.613 340.506 173.556 341.795 173.556H346.834C348.123 173.556 349.178 174.613 349.178 175.906C349.178 177.198 348.123 178.256 346.834 178.256ZM347.772 202.344H285.543C281.441 202.344 278.16 199.054 278.16 194.942C278.16 190.829 281.441 187.539 285.543 187.539H347.889C351.991 187.539 355.272 190.829 355.272 194.942C355.155 199.054 351.874 202.344 347.772 202.344ZM114.559 171.323H107.997C106.473 171.323 105.184 170.031 105.184 168.503V103.171C105.184 101.643 106.473 100.351 107.997 100.351H114.559C116.083 100.351 117.372 101.643 117.372 103.171V168.503C117.372 170.031 116.083 171.323 114.559 171.323ZM221.321 171.323H214.759C213.235 171.323 211.946 170.031 211.946 168.503V103.171C211.946 101.643 213.235 100.351 214.759 100.351H221.321C222.845 100.351 224.134 101.643 224.134 103.171V168.503C224.134 170.031 222.962 171.323 221.321 171.323Z" stroke="#555555" stroke-width="3" stroke-miterlimit="10"/>
</svg>
